<svg width="167" height="167" viewBox="0 0 167 167" fill="none" xmlns="http://www.w3.org/2000/svg">
<path d="M83.6392 158.511C124.99 158.511 158.511 124.99 158.511 83.6392C158.511 42.2888 124.99 8.76758 83.6392 8.76758C42.2888 8.76758 8.76758 42.2888 8.76758 83.6392C8.76758 124.99 42.2888 158.511 83.6392 158.511Z" fill="url(#paint0_linear)"/>
<path d="M39.3151 84.5478L60.0673 66.445C60.0673 66.445 66.6903 71.3019 69.3394 76.1585C71.9886 81.0157 75.0795 90.2879 75.0795 90.2879C75.0795 90.2879 88.3257 69.5356 100.688 58.4972C113.051 47.459 127.181 44.3681 130.271 47.9005C133.362 51.4328 133.362 57.6143 128.505 62.0295C123.648 66.445 107.753 81.8986 100.247 94.2613C92.7406 106.625 83.4687 122.078 83.4687 122.078L68.898 122.52C68.898 122.52 67.132 107.949 59.1842 99.1185C51.2364 90.2878 39.3151 84.5478 39.3151 84.5478Z" fill="#FAFAE4"/>
<defs>
<linearGradient id="paint0_linear" x1="8.76758" y1="83.6392" x2="158.511" y2="83.6392" gradientUnits="userSpaceOnUse">
<stop stop-color="#51BA2D"/>
<stop offset="1" stop-color="#8CC63F"/>
</linearGradient>
</defs>
</svg>
