<svg width="68" height="60" viewBox="0 0 68 60" fill="none" xmlns="http://www.w3.org/2000/svg">
<g clip-path="url(#clip0)" filter="url(#filter0_d)">
<path d="M50.7194 37.3386L50.3955 37.1858C50.2035 37.0948 49.9927 37.0502 49.7803 37.0556C49.5678 37.0611 49.3596 37.1165 49.1725 37.2173C48.9855 37.3181 48.8247 37.4615 48.7033 37.6359C48.5819 37.8103 48.5032 38.0108 48.4736 38.2213L47.6547 44.0197C47.6271 44.2119 47.6412 44.4078 47.696 44.5941C47.7508 44.7804 47.845 44.9528 47.9723 45.0995C48.0995 45.2462 48.2568 45.3638 48.4335 45.4444C48.6101 45.525 48.8021 45.5667 48.9963 45.5666H50.1414C50.5007 45.5666 50.8453 45.4239 51.0993 45.1698C51.3534 44.9157 51.4961 44.5712 51.4961 44.2119V38.5639C51.4961 38.3071 51.4231 38.0555 51.2856 37.8385C51.1481 37.6216 50.9517 37.4482 50.7194 37.3386Z" fill="#84879C"/>
<path d="M50.1414 46.0335H48.9962C48.7351 46.0336 48.477 45.9775 48.2394 45.8692C48.0018 45.7609 47.7903 45.6028 47.6191 45.4057C47.4478 45.2085 47.3209 44.9769 47.2469 44.7265C47.1729 44.4761 47.1536 44.2127 47.1901 43.9541L48.0114 38.1562C48.0513 37.8735 48.1571 37.6041 48.3202 37.3697C48.4833 37.1353 48.6992 36.9426 48.9504 36.8069C49.2017 36.6712 49.4813 36.5964 49.7667 36.5886C50.0521 36.5807 50.3354 36.64 50.5937 36.7617L50.9176 36.9145C51.2298 37.0627 51.4936 37.2963 51.6786 37.5882C51.8636 37.8801 51.9621 38.2184 51.963 38.564V44.2096C51.9618 44.6926 51.7696 45.1555 51.4283 45.4973C51.087 45.839 50.6244 46.0318 50.1414 46.0335ZM49.8165 37.5238C49.6032 37.5249 49.3973 37.6025 49.2363 37.7426C49.0754 37.8826 48.9701 38.0758 48.9395 38.287L48.1187 44.0854C48.1009 44.211 48.1103 44.339 48.1463 44.4607C48.1822 44.5824 48.2439 44.695 48.3271 44.7908C48.4103 44.8866 48.5131 44.9634 48.6285 45.0161C48.7439 45.0687 48.8693 45.096 48.9962 45.096H50.1414C50.3763 45.0957 50.6015 45.0021 50.7676 44.836C50.9337 44.6698 51.0271 44.4446 51.0273 44.2096V38.564C51.0268 38.3961 50.9789 38.2318 50.8891 38.09C50.7993 37.9482 50.6712 37.8346 50.5197 37.7624L50.1958 37.6096C50.0773 37.5533 49.9477 37.524 49.8165 37.5238Z" fill="#2F3A5A"/>
<path d="M4.46875 15.1875H20.7742V17.8819H4.46875V15.1875Z" fill="#C1CDD3"/>
<path d="M20.7742 18.3501H4.46875C4.34443 18.3501 4.2252 18.3008 4.13729 18.2129C4.04939 18.1249 4 18.0057 4 17.8814V15.1875C4 15.0632 4.04939 14.944 4.13729 14.856C4.2252 14.7681 4.34443 14.7188 4.46875 14.7188H20.7742C20.8985 14.7188 21.0178 14.7681 21.1057 14.856C21.1936 14.944 21.243 15.0632 21.243 15.1875V17.8819C21.2428 18.0061 21.1934 18.1252 21.1055 18.213C21.0176 18.3008 20.8985 18.3501 20.7742 18.3501ZM4.9375 17.4127H20.3055V15.6562H4.9375V17.4127Z" fill="#2F3A5A"/>
<path d="M18.8359 12.0667H13.802C13.256 12.0667 12.8134 12.5093 12.8134 13.0552V20.0138C12.8134 20.5598 13.256 21.0024 13.802 21.0024H18.8359C19.3819 21.0024 19.8245 20.5598 19.8245 20.0138V13.0552C19.8245 12.5093 19.3819 12.0667 18.8359 12.0667Z" fill="#9297AB"/>
<path d="M19.8231 16.8918V20.0156C19.8231 20.1451 19.7976 20.2733 19.748 20.3928C19.6984 20.5124 19.6256 20.621 19.534 20.7125C19.4423 20.8039 19.3335 20.8764 19.2138 20.9257C19.0941 20.975 18.9659 21.0003 18.8364 21H13.8011C13.6715 21.0005 13.543 20.9755 13.4231 20.9263C13.3032 20.877 13.1942 20.8046 13.1023 20.7131C13.0105 20.6217 12.9376 20.513 12.8878 20.3933C12.8381 20.2736 12.8125 20.1452 12.8125 20.0156V16.8918C12.8121 17.0218 12.8373 17.1506 12.8866 17.2708C12.936 17.391 13.0086 17.5004 13.1002 17.5925C13.1918 17.6847 13.3007 17.7579 13.4207 17.8079C13.5406 17.858 13.6693 17.8839 13.7992 17.8842H18.8364C18.9664 17.8839 19.095 17.858 19.2149 17.8079C19.3349 17.7579 19.4438 17.6847 19.5354 17.5925C19.6271 17.5004 19.6996 17.391 19.749 17.2708C19.7984 17.1506 19.8236 17.0218 19.8231 16.8918Z" fill="#707583"/>
<path d="M18.836 21.4688H13.8021C13.4162 21.4687 13.0462 21.3157 12.7729 21.0434C12.4996 20.7711 12.3453 20.4015 12.3438 20.0157V13.0552C12.3442 12.6689 12.4978 12.2985 12.7709 12.0253C13.044 11.7521 13.4144 11.5984 13.8007 11.5979H18.836C19.2223 11.5984 19.5926 11.7521 19.8658 12.0253C20.1389 12.2985 20.2925 12.6689 20.2929 13.0552V20.0157C20.2914 20.4013 20.1373 20.7706 19.8643 21.0429C19.5913 21.3152 19.2216 21.4683 18.836 21.4688ZM13.8021 12.5354C13.7337 12.5353 13.6661 12.5487 13.6029 12.5748C13.5398 12.6009 13.4824 12.6392 13.434 12.6875C13.3857 12.7357 13.3473 12.7931 13.3211 12.8562C13.2949 12.9193 13.2814 12.9869 13.2813 13.0552V20.0157C13.2824 20.153 13.3378 20.2843 13.4354 20.3809C13.5329 20.4775 13.6648 20.5316 13.8021 20.5313H18.836C18.9731 20.5313 19.1047 20.4772 19.2021 20.3806C19.2995 20.284 19.3547 20.1529 19.3558 20.0157V13.0552C19.3557 12.9175 19.301 12.7854 19.2036 12.688C19.1062 12.5905 18.9742 12.5356 18.8365 12.5354H13.8021Z" fill="#2F3A5A"/>
<path d="M9.53683 15.1875L11.3495 17.8814L9.53683 15.1875Z" fill="#C1CDD3"/>
<path d="M9.1465 15.4551L9.92452 14.932L11.7361 17.6267L10.9581 18.1498L9.1465 15.4551Z" fill="#2F3A5A"/>
<path d="M6.27298 15.1875L8.08564 17.8814L6.27298 15.1875Z" fill="#C1CDD3"/>
<path d="M5.88055 15.4551L6.65858 14.932L8.47044 17.6271L7.69242 18.1501L5.88055 15.4551Z" fill="#2F3A5A"/>
<path d="M62.3669 17.6437C63.1807 16.5309 60.4563 11.5716 59.4813 11.3076L56.8563 10.6378C56.6472 10.0978 55.6717 10.0603 55.0928 10.0603H32.9542C32.7702 10.0603 32.5879 10.0966 32.4179 10.167C32.2478 10.2374 32.0933 10.3407 31.9632 10.4708C31.833 10.601 31.7298 10.7555 31.6594 10.9255C31.5889 11.0956 31.5527 11.2778 31.5527 11.4619V31.0987C31.5527 31.4705 31.7003 31.827 31.9632 32.0898C32.226 32.3526 32.5825 32.5003 32.9542 32.5003C32.9542 32.5003 36.6785 32.3526 36.9414 32.0897L37.1875 31.8436C37.4503 31.5807 37.8068 31.433 38.1785 31.433H47.3313C47.703 31.433 48.0595 31.5806 48.3223 31.8435C48.5852 32.1063 48.7328 32.4628 48.7328 32.8345V36.6141C48.7329 36.9857 48.8806 37.3422 49.1435 37.605L50.1527 38.6142C50.4155 38.877 50.5632 39.2335 50.5633 39.6051V48.5372C50.5633 48.9089 50.711 49.2654 50.9738 49.5282C51.2367 49.7911 51.5932 49.9387 51.9649 49.9387H62.1292C62.3139 49.9392 62.4967 49.9032 62.6673 49.8326C62.8379 49.7621 62.9929 49.6585 63.1232 49.5277C63.2536 49.397 63.3567 49.2417 63.4268 49.0709C63.4968 48.9001 63.5323 48.7171 63.5313 48.5325C63.5135 46.0111 60.5125 35.5622 59.9308 26.7426C59.8507 25.5239 60.9578 23.8134 61.443 22.5323C61.9793 20.9544 62.2904 19.3086 62.3669 17.6437Z" fill="#FFC943"/>
<g opacity="0.5">
<path opacity="0.5" d="M63.5313 48.5353C63.532 48.7202 63.4961 48.9034 63.4257 49.0743C63.3553 49.2453 63.2518 49.4006 63.121 49.5313C62.9903 49.6621 62.835 49.7656 62.664 49.836C62.4931 49.9064 62.3099 49.9423 62.125 49.9416H51.9658C51.5928 49.9416 51.2351 49.7934 50.9714 49.5297C50.7077 49.266 50.5595 48.9083 50.5595 48.5353V39.6038C50.5602 39.4202 50.5241 39.2383 50.4534 39.0688C50.3827 38.8994 50.2789 38.7458 50.148 38.617L49.1406 37.6078C48.8807 37.3429 48.735 36.9866 48.7347 36.6155V32.8378C48.7347 32.4649 48.5865 32.1072 48.3228 31.8435C48.0591 31.5797 47.7014 31.4316 47.3285 31.4316H38.1799C37.9955 31.4315 37.8129 31.4677 37.6426 31.5384C37.4723 31.609 37.3177 31.7126 37.1875 31.8431L36.9395 32.0855C36.6803 32.3503 32.9552 32.4971 32.9552 32.4971C32.5833 32.4979 32.2263 32.3511 31.9627 32.089C31.699 31.8268 31.5502 31.4706 31.5489 31.0988V29.3021C34.9544 29.5331 40.3483 29.2739 40.6356 29.2739H49.7894C50.1612 29.2731 50.5182 29.4198 50.7819 29.682C51.0456 29.9442 51.1944 30.3004 51.1956 30.6722V34.4555C51.1949 34.8252 51.3409 35.1801 51.6016 35.4422L52.6108 36.4514C52.7414 36.5816 52.8449 36.7362 52.9156 36.9065C52.9862 37.0768 53.0225 37.2594 53.0224 37.4438V46.3758C53.0224 46.7488 53.1705 47.1064 53.4342 47.3702C53.698 47.6339 54.0556 47.782 54.4286 47.782H63.5224C63.5252 48.0563 63.5313 48.3099 63.5313 48.5353Z" fill="#F7B521"/>
</g>
<path d="M62.1293 50.408H51.9654C51.4697 50.4067 50.9947 50.2093 50.6442 49.8588C50.2937 49.5083 50.0963 49.0333 50.095 48.5377V39.6056C50.0945 39.3584 49.9963 39.1213 49.8218 38.9461L48.8125 37.9364C48.6384 37.7631 48.5003 37.5571 48.4064 37.3301C48.3124 37.1031 48.2644 36.8597 48.265 36.6141V32.835C48.2648 32.5877 48.1664 32.3506 47.9916 32.1757C47.8167 32.0008 47.5795 31.9024 47.3322 31.9022H38.1789C37.9222 32.0409 37.6732 32.1937 37.4332 32.3597C36.8369 32.7492 36.4849 32.9691 36.1741 32.9691H32.9542C32.4586 32.9678 31.9836 32.7704 31.6331 32.4199C31.2826 32.0694 31.0852 31.5944 31.0839 31.0988V11.4624C31.0852 10.9667 31.2826 10.4917 31.6331 10.1412C31.9836 9.79073 32.4586 9.59328 32.9542 9.59204H55.0938C56.9721 9.59204 62.4213 10.935 62.8071 16.9013C63.0133 20.0995 62.141 22.1339 61.3708 23.9292C60.7052 25.4813 60.1305 26.8214 60.3579 28.6463C60.9935 33.7425 62.1199 38.9639 62.9421 42.7763C63.5515 45.608 63.994 47.6541 64.0001 48.5297C64.0016 48.7762 63.9543 49.0205 63.861 49.2486C63.7676 49.4767 63.63 49.684 63.456 49.8586C63.2821 50.0333 63.0753 50.1717 62.8476 50.266C62.6199 50.3603 62.3757 50.4085 62.1293 50.408ZM38.1789 30.9647H47.3313C47.827 30.9659 48.302 31.1634 48.6524 31.5139C49.0029 31.8644 49.2004 32.3394 49.2016 32.835V36.6141C49.2022 36.8614 49.3004 37.0984 49.4749 37.2736L50.4841 38.2828C50.8337 38.6343 51.0306 39.1094 51.0321 39.6052V48.5372C51.0323 48.7845 51.1307 49.0216 51.3056 49.1965C51.4804 49.3714 51.7176 49.4698 51.9649 49.47H62.1293C62.2528 49.4705 62.3752 49.4464 62.4894 49.3991C62.6035 49.3518 62.707 49.2822 62.794 49.1944C62.88 49.1082 62.948 49.0059 62.9941 48.8932C63.0402 48.7806 63.0635 48.6599 63.0626 48.5381C63.0569 47.7586 62.6018 45.6478 62.0257 42.9755C61.1997 39.1458 60.0686 33.9014 59.4279 28.7639C59.1686 26.6869 59.8197 25.1686 60.5097 23.5608C61.2738 21.7795 62.0641 19.9374 61.8719 16.9627C61.4688 10.7044 55.1575 10.5295 55.0938 10.5295H32.9542C32.7069 10.5298 32.4698 10.6281 32.2949 10.803C32.12 10.9779 32.0217 11.215 32.0214 11.4624V31.0988C32.0217 31.3461 32.12 31.5832 32.2949 31.7581C32.4698 31.933 32.7069 32.0313 32.9542 32.0316H36.1741C36.4309 31.8928 36.6798 31.7401 36.9199 31.5741C37.5157 31.185 37.8682 30.9647 38.1789 30.9647Z" fill="#2F3A5A"/>
<path d="M34.0469 10.0608H23.1386C22.9535 10.0607 22.7726 10.1164 22.6197 10.2207C22.4667 10.325 22.3488 10.473 22.2812 10.6453L22.1875 10.8858C22.1201 11.0582 22.0022 11.2062 21.8494 11.3106C21.6965 11.4149 21.5157 11.4708 21.3306 11.4708H20.3041C20.06 11.4708 19.826 11.5677 19.6534 11.7403C19.4808 11.9129 19.3839 12.1469 19.3839 12.3909V20.7895C19.3839 21.0336 19.4808 21.2676 19.6534 21.4402C19.826 21.6128 20.06 21.7097 20.3041 21.7097H21.5744C21.7737 21.7097 21.9676 21.7745 22.1269 21.8942C22.2863 22.0138 22.4024 22.182 22.458 22.3734L25.2002 31.8361C25.2557 32.0275 25.3719 32.1957 25.5312 32.3154C25.6906 32.4351 25.8845 32.4998 26.0837 32.4999H34.0469C34.2909 32.4999 34.525 32.4029 34.6975 32.2303C34.8701 32.0578 34.967 31.8237 34.967 31.5797V10.9809C34.967 10.8601 34.9432 10.7405 34.897 10.6288C34.8507 10.5172 34.783 10.4157 34.6975 10.3303C34.6121 10.2449 34.5106 10.1771 34.399 10.1308C34.2874 10.0846 34.1677 10.0608 34.0469 10.0608Z" fill="#D9E2E9"/>
<path d="M34.9684 28.6405V31.5782C34.9671 31.8226 34.8691 32.0565 34.6958 32.2288C34.5225 32.4011 34.2879 32.4976 34.0435 32.4974H26.0818C25.8829 32.497 25.6894 32.4319 25.5307 32.3119C25.372 32.1919 25.2566 32.0236 25.202 31.8322L22.456 22.3724C22.4016 22.1813 22.2865 22.0131 22.1282 21.893C21.9698 21.773 21.7768 21.7076 21.5781 21.7068H20.3021C20.0583 21.7068 19.8245 21.6099 19.6522 21.4375C19.4798 21.2652 19.3829 21.0313 19.3829 20.7876V16.9312C19.4027 17.1931 19.5252 17.4367 19.7237 17.6089C19.9222 17.781 20.1806 17.8678 20.4428 17.8504H21.9085C22.126 17.842 22.3406 17.9016 22.5226 18.0208C22.7046 18.14 22.845 18.3129 22.9243 18.5155L26.0818 27.9772C26.2187 28.3719 33.1974 28.6405 33.6718 28.6405H34.9684Z" fill="#C1CDD3"/>
<path d="M34.0469 32.9688H26.0838C25.7834 32.9678 25.4913 32.87 25.251 32.6898C25.0106 32.5095 24.8349 32.2566 24.7497 31.9685L22.0075 22.5059C21.98 22.4121 21.9229 22.3298 21.8448 22.2711C21.7666 22.2124 21.6717 22.1805 21.5739 22.1801H20.3036C19.9355 22.1797 19.5825 22.0333 19.3221 21.773C19.0617 21.5128 18.9152 21.1598 18.9147 20.7917V12.3907C18.9151 12.0225 19.0615 11.6694 19.3219 11.409C19.5823 11.1486 19.9354 11.0022 20.3036 11.0018H21.3307C21.4218 11.0025 21.511 10.9754 21.5863 10.9242C21.6617 10.8729 21.7197 10.7999 21.7525 10.7149L21.8463 10.4745C21.9471 10.2137 22.1247 9.98966 22.3557 9.83204C22.5866 9.67443 22.86 9.59066 23.1396 9.59181H34.0469C34.4151 9.59218 34.7681 9.73857 35.0284 9.99886C35.2888 10.2591 35.4353 10.6121 35.4358 10.9802V31.5804C35.4353 31.9486 35.2888 32.3015 35.0284 32.5618C34.7681 32.8221 34.4151 32.9685 34.0469 32.9688ZM20.3041 11.9393C20.1844 11.9394 20.0697 11.987 19.985 12.0717C19.9004 12.1563 19.8528 12.271 19.8527 12.3907V20.7898C19.8529 20.9094 19.9006 21.024 19.9852 21.1085C20.0698 21.1931 20.1845 21.2406 20.3041 21.2407H21.5744C21.875 21.2418 22.1673 21.34 22.4077 21.5206C22.648 21.7011 22.8237 21.9545 22.9085 22.2429L25.6507 31.706C25.6782 31.7998 25.7353 31.8821 25.8134 31.9408C25.8915 31.9995 25.9865 32.0314 26.0842 32.0318H34.0469C34.1666 32.0317 34.2813 31.9841 34.366 31.8995C34.4506 31.8148 34.4982 31.7001 34.4983 31.5804V10.9802C34.4981 10.8606 34.4504 10.746 34.3658 10.6615C34.2812 10.577 34.1665 10.5294 34.0469 10.5293H23.1386C23.0475 10.5286 22.9583 10.5557 22.8829 10.6069C22.8076 10.6582 22.7496 10.7312 22.7167 10.8162L22.623 11.0567C22.5222 11.3174 22.3445 11.5415 22.1136 11.6991C21.8827 11.8567 21.6093 11.9405 21.3297 11.9393H20.3041Z" fill="#2F3A5A"/>
<path d="M47.9313 14.8821H39.3091C39.1848 14.8821 39.0656 14.8327 38.9776 14.7448C38.8897 14.6569 38.8403 14.5377 38.8403 14.4133C38.8403 14.289 38.8897 14.1698 38.9776 14.0819C39.0656 13.994 39.1848 13.9446 39.3091 13.9446H47.9313C48.0556 13.9446 48.1748 13.994 48.2627 14.0819C48.3506 14.1698 48.4 14.289 48.4 14.4133C48.4 14.5377 48.3506 14.6569 48.2627 14.7448C48.1748 14.8327 48.0556 14.8821 47.9313 14.8821Z" fill="#2F3A5A"/>
<path d="M47.9313 17.0027H39.3091C39.1848 17.0027 39.0656 16.9533 38.9776 16.8654C38.8897 16.7775 38.8403 16.6583 38.8403 16.5339C38.8403 16.4096 38.8897 16.2904 38.9776 16.2025C39.0656 16.1146 39.1848 16.0652 39.3091 16.0652H47.9313C48.0556 16.0652 48.1748 16.1146 48.2627 16.2025C48.3506 16.2904 48.4 16.4096 48.4 16.5339C48.4 16.6583 48.3506 16.7775 48.2627 16.8654C48.1748 16.9533 48.0556 17.0027 47.9313 17.0027Z" fill="#2F3A5A"/>
<path d="M47.9313 19.1248H39.3091C39.1848 19.1248 39.0656 19.0754 38.9776 18.9875C38.8897 18.8996 38.8403 18.7803 38.8403 18.656C38.8403 18.5317 38.8897 18.4125 38.9776 18.3245C39.0656 18.2366 39.1848 18.1873 39.3091 18.1873H47.9313C48.0556 18.1873 48.1748 18.2366 48.2627 18.3245C48.3506 18.4125 48.4 18.5317 48.4 18.656C48.4 18.7803 48.3506 18.8996 48.2627 18.9875C48.1748 19.0754 48.0556 19.1248 47.9313 19.1248Z" fill="#2F3A5A"/>
<path d="M47.9313 21.2451H39.3091C39.1848 21.2451 39.0656 21.1957 38.9776 21.1078C38.8897 21.0199 38.8403 20.9007 38.8403 20.7764C38.8403 20.652 38.8897 20.5328 38.9776 20.4449C39.0656 20.357 39.1848 20.3076 39.3091 20.3076H47.9313C48.0556 20.3076 48.1748 20.357 48.2627 20.4449C48.3506 20.5328 48.4 20.652 48.4 20.7764C48.4 20.9007 48.3506 21.0199 48.2627 21.1078C48.1748 21.1957 48.0556 21.2451 47.9313 21.2451Z" fill="#2F3A5A"/>
</g>
<defs>
<filter id="filter0_d" x="0" y="0" width="68" height="68" filterUnits="userSpaceOnUse" color-interpolation-filters="sRGB">
<feFlood flood-opacity="0" result="BackgroundImageFix"/>
<feColorMatrix in="SourceAlpha" type="matrix" values="0 0 0 0 0 0 0 0 0 0 0 0 0 0 0 0 0 0 127 0"/>
<feOffset dy="4"/>
<feGaussianBlur stdDeviation="2"/>
<feColorMatrix type="matrix" values="0 0 0 0 0 0 0 0 0 0 0 0 0 0 0 0 0 0 0.25 0"/>
<feBlend mode="normal" in2="BackgroundImageFix" result="effect1_dropShadow"/>
<feBlend mode="normal" in="SourceGraphic" in2="effect1_dropShadow" result="shape"/>
</filter>
<clipPath id="clip0">
<rect width="60" height="60" fill="white" transform="translate(4)"/>
</clipPath>
</defs>
</svg>
