<svg width="25" height="17" viewBox="0 0 25 17" fill="none" xmlns="http://www.w3.org/2000/svg">
<path d="M23.7179 0H1.28208C0.576904 0 0 0.576904 0 1.28203V15.3846C0 16.0897 0.576904 16.6667 1.28208 16.6667H23.718C24.423 16.6667 25 16.0898 25 15.3846V1.28203C25 0.576904 24.4231 0 23.7179 0ZM23.2368 0.961475L13.2375 8.46157C13.0577 8.59839 12.7817 8.68398 12.5 8.68271C12.2182 8.68398 11.9423 8.59839 11.7625 8.46157L1.76313 0.961475H23.2368ZM17.8955 8.95644L23.3442 15.6873C23.3497 15.694 23.3564 15.6991 23.3622 15.7052H1.63779C1.64355 15.6988 1.65029 15.694 1.65576 15.6873L7.10449 8.95644C7.27144 8.75005 7.23979 8.44746 7.03301 8.28013C6.82661 8.11318 6.52402 8.14482 6.35703 8.35127L0.961523 15.0164V1.56245L11.1858 9.23071C11.5702 9.51694 12.0377 9.64292 12.4999 9.64419C12.9614 9.64321 13.4294 9.51724 13.814 9.23071L24.0383 1.56245V15.0163L18.6429 8.35127C18.4759 8.14487 18.173 8.11313 17.9669 8.28013C17.7602 8.44707 17.7285 8.75005 17.8955 8.95644Z" fill="#0D1621"/>
</svg>
