<svg width="60" height="68" viewBox="0 0 60 68" fill="none" xmlns="http://www.w3.org/2000/svg">
<g clip-path="url(#clip0)" filter="url(#filter0_d)">
<path d="M25.9776 25.7134H34.0219V31.8878H25.9776V25.7134Z" fill="#E8C79C"/>
<path d="M34.0219 32.356H25.9776C25.8533 32.356 25.7341 32.3066 25.6462 32.2187C25.5583 32.1308 25.5089 32.0116 25.5089 31.8873V25.7129C25.5089 25.5886 25.5583 25.4693 25.6462 25.3814C25.7341 25.2935 25.8533 25.2441 25.9776 25.2441H34.0219C34.1462 25.2441 34.2654 25.2935 34.3533 25.3814C34.4412 25.4693 34.4906 25.5886 34.4906 25.7129V31.8873C34.4906 32.0116 34.4412 32.1308 34.3533 32.2187C34.2654 32.3066 34.1462 32.356 34.0219 32.356ZM26.4464 31.4185H33.5531V26.1816H26.4464V31.4185Z" fill="#2F3A5A"/>
<path d="M39.8972 18.5602C40.1251 17.2063 39.6813 16.0029 38.9058 15.8723C38.1303 15.7418 37.3169 16.7335 37.0889 18.0874C36.861 19.4413 37.3049 20.6447 38.0803 20.7752C38.8558 20.9058 39.6692 19.9141 39.8972 18.5602Z" fill="#E8C79C"/>
<path d="M38.2031 21.2388C38.1317 21.2388 38.0603 21.2328 37.9899 21.221C36.9431 21.0452 36.338 19.6272 36.6122 17.9932C36.8864 16.3591 37.9214 15.2177 38.9681 15.3921C40.0149 15.5679 40.62 16.9858 40.3458 18.6199C40.0889 20.1429 39.1725 21.2388 38.2031 21.2388ZM38.7506 16.3127C38.3105 16.3127 37.7194 17.0627 37.5356 18.1493C37.3444 19.2879 37.6992 20.2226 38.145 20.2971C38.5908 20.3716 39.2302 19.6043 39.421 18.4657C39.6117 17.3271 39.2574 16.3929 38.8116 16.3179C38.7914 16.3144 38.7711 16.3127 38.7506 16.3127Z" fill="#2F3A5A"/>
<path d="M21.9392 20.7434C22.7147 20.6128 23.1586 19.4095 22.9307 18.0556C22.7027 16.7017 21.8893 15.71 21.1138 15.8405C20.3383 15.9711 19.8945 17.1745 20.1224 18.5283C20.3503 19.8822 21.1638 20.874 21.9392 20.7434Z" fill="#E8C79C"/>
<path d="M21.7969 21.2383C20.8261 21.2383 19.9097 20.1424 19.6542 18.6199C19.38 16.9858 19.9852 15.5679 21.0319 15.3921C22.0767 15.2177 23.1136 16.3591 23.3878 17.9932C23.662 19.6272 23.0569 21.0452 22.0102 21.221C21.9397 21.2327 21.8683 21.2385 21.7969 21.2383ZM21.1875 16.3165C20.7427 16.3915 20.3883 17.3257 20.5781 18.4643C20.768 19.6029 21.4111 20.374 21.8541 20.2957C22.297 20.2174 22.6533 19.2865 22.4634 18.1479C22.2736 17.0093 21.6309 16.2387 21.1875 16.3169V16.3165Z" fill="#2F3A5A"/>
<path d="M30 28.1458C34.5709 28.1458 38.2763 23.2429 38.2763 17.1948C38.2763 11.1468 34.5709 6.2439 30 6.2439C25.4292 6.2439 21.7238 11.1468 21.7238 17.1948C21.7238 23.2429 25.4292 28.1458 30 28.1458Z" fill="#E8C79C"/>
<g opacity="0.5">
<path opacity="0.5" d="M38.2767 17.1951C38.2767 23.242 34.5694 28.146 30 28.146C28.4645 28.13 26.9801 27.593 25.7897 26.623C26.5932 26.9722 27.4598 27.1526 28.3359 27.1532C32.9053 27.1532 36.6094 22.2515 36.6094 16.2023C36.6094 12.1898 34.9753 8.67695 32.543 6.77148C35.8711 8.18992 38.2767 12.3201 38.2767 17.1951Z" fill="#D0AA79"/>
</g>
<path d="M30 28.6145C25.178 28.6145 21.255 23.4915 21.255 17.1948C21.255 10.8981 25.1775 5.77466 30 5.77466C34.8225 5.77466 38.745 10.8976 38.745 17.1948C38.745 23.492 34.8221 28.6145 30 28.6145ZM30 6.71216C25.695 6.71216 22.1925 11.4147 22.1925 17.1943C22.1925 22.974 25.6946 27.677 30 27.677C34.3055 27.677 37.8075 22.9745 37.8075 17.1948C37.8075 11.4151 34.305 6.71216 30 6.71216Z" fill="#2F3A5A"/>
<path d="M38.4778 15.8435L37.988 20.0688H36.7106L35.94 15.8435H38.4778Z" fill="#9297AB"/>
<path d="M37.988 20.5376H36.7106C36.6009 20.5376 36.4947 20.4992 36.4104 20.4289C36.3261 20.3587 36.2691 20.2611 36.2494 20.1532L35.4783 15.9279C35.4659 15.8603 35.4686 15.7908 35.486 15.7243C35.5035 15.6579 35.5354 15.5961 35.5794 15.5433C35.6234 15.4905 35.6785 15.4481 35.7407 15.4189C35.803 15.3898 35.8708 15.3747 35.9395 15.3748H38.4774C38.5435 15.3748 38.6088 15.3888 38.6691 15.4158C38.7294 15.4429 38.7833 15.4824 38.8272 15.5318C38.8712 15.5811 38.9042 15.6392 38.9241 15.7022C38.9441 15.7652 38.9504 15.8318 38.9428 15.8974L38.453 20.1227C38.4398 20.2368 38.3851 20.3421 38.2994 20.4186C38.2137 20.4951 38.1029 20.5374 37.988 20.5376ZM37.1021 19.6001H37.5708L37.9519 16.3123H36.5021L37.1021 19.6001Z" fill="#2F3A5A"/>
<path d="M21.5138 15.8435L22.0036 20.0688H23.281L24.0516 15.8435H21.5138Z" fill="#9297AB"/>
<path d="M23.2809 20.5376H22.0036C21.8886 20.5376 21.7777 20.4953 21.6919 20.4188C21.6061 20.3423 21.5514 20.2369 21.5381 20.1228L21.0469 15.8974C21.0393 15.8316 21.0458 15.7648 21.066 15.7016C21.0861 15.6384 21.1194 15.5802 21.1637 15.5309C21.2081 15.4815 21.2623 15.4421 21.323 15.4153C21.3836 15.3885 21.4493 15.3748 21.5156 15.3753H24.0516C24.1203 15.3752 24.1882 15.3903 24.2504 15.4194C24.3126 15.4486 24.3677 15.491 24.4117 15.5438C24.4557 15.5966 24.4876 15.6584 24.5051 15.7248C24.5225 15.7913 24.5252 15.8608 24.5128 15.9284L23.7417 20.1537C23.7219 20.2614 23.6649 20.3588 23.5808 20.429C23.4966 20.4991 23.3905 20.5375 23.2809 20.5376ZM22.4217 19.6001H22.8905L23.4905 16.3123H22.0402L22.4217 19.6001Z" fill="#2F3A5A"/>
<path d="M38.1881 10.3625L30 12.778L21.8119 10.3625C21.8119 10.3625 20.5856 10.7591 20.468 11.1941C20.347 11.6399 19.628 15.8479 21.0188 16.4591C22.1719 16.9686 24.4688 17.8035 28.3636 18.0665C28.6224 18.0838 31.3777 18.0847 31.6364 18.0665C34.159 17.9555 36.6438 17.4111 38.9817 16.4572C40.3725 15.8479 39.6534 11.638 39.5325 11.1922C39.4144 10.7591 38.1881 10.3625 38.1881 10.3625Z" fill="#FFC943"/>
<path d="M30.0937 18.5491C29.2992 18.5491 28.4779 18.5439 28.3336 18.5341C25.7579 18.4181 23.2212 17.8614 20.8336 16.8883C18.9234 16.0483 20.0058 11.1199 20.0189 11.0711C20.1792 10.4791 21.1228 10.0938 21.6712 9.91611L21.809 9.87158L30 12.2889L38.1942 9.87158L38.332 9.91611C38.8804 10.0933 39.824 10.4786 39.9844 11.0711C39.9975 11.118 41.0798 16.0478 39.1697 16.8878C36.7818 17.8646 34.2433 18.422 31.6659 18.5355C31.53 18.5449 30.8226 18.5491 30.0937 18.5491ZM21.8226 10.8541C21.4866 10.9541 21.1746 11.1221 20.9062 11.3477C20.6808 12.1942 20.3165 15.6391 21.2058 16.03C23.4945 16.9593 25.9253 17.4899 28.3931 17.5989C28.6298 17.6149 31.3608 17.6163 31.604 17.5989C34.0725 17.4936 36.5042 16.9631 38.7923 16.031C39.6829 15.64 39.3173 12.1952 39.0792 11.3177C38.8065 11.1143 38.5017 10.9581 38.1773 10.8555L30 13.2653L21.8226 10.8541Z" fill="#2F3A5A"/>
<path d="M38.8088 10.4445C38.7656 9.14747 37.7714 9.14747 37.7714 9.14747C37.0781 3.57121 33.1453 2.18746 33.1453 2.18746C32.7563 1.5823 30.8953 1.36621 30.8953 1.36621H29.1024C29.1024 1.36621 27.2433 1.5823 26.8524 2.18746C26.8524 2.18746 22.9181 3.57074 22.2267 9.14747C22.2267 9.14747 21.2325 9.14747 21.1894 10.4445C21.1894 10.4445 20.9302 14.0759 22.5727 14.2057C22.5727 14.2057 24.7908 15.1901 29.9981 14.9848C35.3855 15.0917 37.4236 14.2057 37.4236 14.2057C39.068 14.0759 38.8088 10.4445 38.8088 10.4445Z" fill="#FFC943"/>
<path d="M30 14.9843C24.7936 15.1877 22.5741 14.2052 22.5741 14.2052C20.9334 14.0749 21.1908 10.4435 21.1908 10.4435C21.2255 9.44601 21.8199 9.21585 22.0922 9.16382C22.1611 10.2302 22.4241 11.621 23.3278 11.7016C23.3278 11.7016 25.3209 12.686 29.9995 12.4807C34.8412 12.5862 36.6712 11.7016 36.6712 11.7016C37.575 11.621 37.8375 10.2302 37.9069 9.16382C38.1792 9.21585 38.7741 9.44507 38.8083 10.4435C38.8083 10.4435 39.0258 13.4965 37.7967 14.1044C37.4525 14.2417 37.0973 14.3497 36.735 14.4274C34.5219 14.8926 32.2594 15.0797 30 14.9843Z" fill="#F7B521"/>
<path d="M28.598 15.4812C26.7223 15.5261 24.8492 15.3148 23.0306 14.8531C22.6819 14.7652 22.3386 14.6568 22.0027 14.5282C20.5256 13.8082 20.6991 10.7567 20.7239 10.4107C20.6995 10.0534 20.7924 9.69777 20.9885 9.39801C21.1846 9.09825 21.4732 8.87071 21.8105 8.74996C22.5661 3.73434 25.8488 2.0984 26.566 1.79746C27.1406 1.16887 28.5938 0.953711 29.0485 0.900742L29.1024 0.897461L30.9511 0.900742C31.4077 0.953711 32.8613 1.16887 33.4355 1.79793C34.1527 2.09887 37.4353 3.73621 38.191 8.7509C38.5287 8.87369 38.8174 9.10295 39.0135 9.40412C39.2095 9.70529 39.3024 10.062 39.278 10.4206C39.3052 10.8111 39.4655 13.864 37.9618 14.5456C37.9397 14.5559 35.6574 15.5614 29.993 15.4535C29.5017 15.4726 29.0367 15.4818 28.598 15.4812ZM22.2286 9.61668C22.1086 9.6223 21.6849 9.69918 21.6596 10.4604C21.5958 11.374 21.6971 13.3371 22.4128 13.6859C22.5131 13.7328 23.056 13.8856 23.288 13.9521C24.2367 14.2235 26.3696 14.6553 29.9813 14.5146C35.3803 14.6187 37.5535 13.6985 37.575 13.6896C38.303 13.3615 38.4052 11.382 38.3405 10.4764V10.4586C38.3133 9.63824 37.8249 9.6148 37.7714 9.6148H37.3571L37.3064 9.20371C36.6563 3.97715 33.0267 2.64262 32.9902 2.62996L32.8383 2.5784L32.7511 2.44293C32.5988 2.2034 31.6407 1.92824 30.8696 1.83496H29.1305C28.3589 1.92871 27.405 2.19824 27.2489 2.44105L27.1617 2.57652L27.0099 2.62996C26.8617 2.6834 23.3386 4.00715 22.6936 9.20558L22.643 9.61668H22.2286Z" fill="#2F3A5A"/>
<path d="M33.1454 9.65165C33.021 9.65165 32.9018 9.60226 32.8139 9.51436C32.726 9.42645 32.6766 9.30722 32.6766 9.1829V2.18774C32.6766 2.06342 32.726 1.9442 32.8139 1.85629C32.9018 1.76838 33.021 1.71899 33.1454 1.71899C33.2697 1.71899 33.3889 1.76838 33.4768 1.85629C33.5647 1.9442 33.6141 2.06342 33.6141 2.18774V9.1829C33.6141 9.30722 33.5647 9.42645 33.4768 9.51436C33.3889 9.60226 33.2697 9.65165 33.1454 9.65165Z" fill="#2F3A5A"/>
<path d="M26.8781 9.65165C26.7538 9.65165 26.6346 9.60226 26.5467 9.51436C26.4588 9.42645 26.4094 9.30722 26.4094 9.1829V2.18774C26.4094 2.06342 26.4588 1.9442 26.5467 1.85629C26.6346 1.76838 26.7538 1.71899 26.8781 1.71899C27.0025 1.71899 27.1217 1.76838 27.2096 1.85629C27.2975 1.9442 27.3469 2.06342 27.3469 2.18774V9.1829C27.3469 9.30722 27.2975 9.42645 27.2096 9.51436C27.1217 9.60226 27.0025 9.65165 26.8781 9.65165Z" fill="#2F3A5A"/>
<path d="M31.0861 4.17984V1.50797C31.0861 1.23235 30.9766 0.968022 30.7817 0.77313C30.5868 0.578239 30.3225 0.46875 30.0469 0.46875C29.7713 0.46875 29.5069 0.578239 29.312 0.77313C29.1171 0.968022 29.0077 1.23235 29.0077 1.50797V4.17984" fill="#FFC943"/>
<path d="M31.0861 4.64859C30.9618 4.64859 30.8425 4.59921 30.7546 4.5113C30.6667 4.42339 30.6173 4.30416 30.6173 4.17984V1.50797C30.6173 1.35667 30.5572 1.21157 30.4503 1.10459C30.3433 0.997603 30.1982 0.9375 30.0469 0.9375C29.8956 0.9375 29.7505 0.997603 29.6435 1.10459C29.5365 1.21157 29.4764 1.35667 29.4764 1.50797V4.17984C29.4764 4.30416 29.427 4.42339 29.3391 4.5113C29.2512 4.59921 29.132 4.64859 29.0077 4.64859C28.8833 4.64859 28.7641 4.59921 28.6762 4.5113C28.5883 4.42339 28.5389 4.30416 28.5389 4.17984V1.50797C28.5389 1.30994 28.5779 1.11385 28.6537 0.930894C28.7295 0.747939 28.8406 0.581702 28.9806 0.441674C29.1206 0.301646 29.2868 0.19057 29.4698 0.114787C29.6528 0.0390048 29.8488 0 30.0469 0C30.2449 0 30.441 0.0390048 30.6239 0.114787C30.8069 0.19057 30.9731 0.301646 31.1132 0.441674C31.2532 0.581702 31.3643 0.747939 31.44 0.930894C31.5158 1.11385 31.5548 1.30994 31.5548 1.50797V4.17984C31.5548 4.30416 31.5054 4.42339 31.4175 4.5113C31.3296 4.59921 31.2104 4.64859 31.0861 4.64859Z" fill="#2F3A5A"/>
<path d="M47.3723 43.9727H12.6277L13.5905 37.1487C13.8617 36.017 14.4068 34.9694 15.1778 34.0978C15.9488 33.2262 16.9221 32.5573 18.0122 32.1499L21.1594 30.9757L23.2125 30.2074L25.9781 29.1762C26.2781 29.9203 26.7981 30.555 27.4687 30.9954C28.2188 31.4959 29.1002 31.7629 30.0019 31.7629C30.9035 31.7629 31.785 31.4959 32.535 30.9954C33.2056 30.5542 33.7254 29.9187 34.0247 29.1738L36.7903 30.2051L38.8434 30.9734L41.9906 32.1476C43.0807 32.5549 44.054 33.2238 44.825 34.0954C45.596 34.967 46.1411 36.0147 46.4123 37.1463L47.3723 43.9727Z" fill="#F0F5F9"/>
<path d="M46.4095 37.1475C46.1383 36.0159 45.5932 34.9682 44.8222 34.0966C44.0512 33.225 43.0779 32.5561 41.9878 32.1488L38.8406 30.9741L36.7875 30.2058L34.0219 29.1746C33.8423 29.6245 33.5794 30.0366 33.247 30.3891L34.8174 30.9764L37.9645 32.1507C39.0546 32.558 40.0279 33.2269 40.7989 34.0985C41.5699 34.9701 42.115 36.0178 42.3863 37.1494L43.3491 43.9735H47.3719L46.4095 37.1475Z" fill="#D9E2E9"/>
<path d="M47.3724 44.4419H12.6277C12.5606 44.4419 12.4943 44.4275 12.4332 44.3996C12.3722 44.3718 12.3178 44.3312 12.2738 44.2805C12.2298 44.2298 12.1972 44.1703 12.1782 44.106C12.1592 44.0416 12.1542 43.974 12.1636 43.9075L13.125 37.0835C13.409 35.8683 13.9888 34.7421 14.8127 33.8049C15.6367 32.8676 16.6794 32.1484 17.8481 31.7111L25.8131 28.7346C25.9279 28.6916 26.0548 28.6953 26.1669 28.7448C26.2789 28.7943 26.3672 28.8857 26.4127 28.9994C26.6764 29.6571 27.1357 30.218 27.7285 30.6063C28.4015 31.0537 29.1916 31.2924 29.9998 31.2924C30.808 31.2924 31.5981 31.0537 32.2711 30.6063C32.8641 30.2179 33.3235 29.6568 33.5874 28.9989C33.6329 28.8852 33.7211 28.7938 33.8331 28.7443C33.9452 28.6948 34.0722 28.6912 34.1869 28.7341L42.1514 31.7097C43.314 32.1434 44.3521 32.8565 45.1741 33.786C45.9962 34.7155 46.5769 35.833 46.8652 37.0399L47.8364 43.9075C47.8458 43.974 47.8408 44.0416 47.8218 44.106C47.8028 44.1703 47.7702 44.2298 47.7262 44.2805C47.6822 44.3312 47.6279 44.3718 47.5668 44.3996C47.5058 44.4275 47.4395 44.4419 47.3724 44.4419ZM13.1677 43.5044H46.8328L45.945 37.2147C45.6877 36.1659 45.1775 35.196 44.459 34.3897C43.7406 33.5834 42.8357 32.9652 41.8233 32.5891L34.2656 29.7658C33.9191 30.4207 33.4132 30.9778 32.7947 31.3858C31.9666 31.9363 30.9944 32.23 30 32.23C29.0056 32.23 28.0334 31.9363 27.2053 31.3858C26.5867 30.9779 26.0809 30.4208 25.7344 29.7658L18.1763 32.5891C17.1578 32.969 16.2485 33.5935 15.5283 34.4077C14.8082 35.2219 14.2993 36.2007 14.0466 37.2578L13.1677 43.5044Z" fill="#2F3A5A"/>
<path d="M38.8406 36.5736V30.9753L36.787 30.207V36.5736H23.2129V30.207L21.1593 30.9753V36.5736H21.1589V43.9719H38.8411V36.5736H38.8406Z" fill="#FFC943"/>
<path d="M38.8411 44.4411H21.1589C21.0346 44.4411 20.9153 44.3918 20.8274 44.3039C20.7395 44.2159 20.6901 44.0967 20.6901 43.9724V30.9758C20.6901 30.8803 20.7192 30.7871 20.7735 30.7086C20.8279 30.6301 20.9049 30.5701 20.9943 30.5366L23.0475 29.7683C23.1184 29.7417 23.1947 29.7327 23.2699 29.7421C23.3451 29.7515 23.4169 29.7789 23.4791 29.8221C23.5414 29.8653 23.5923 29.9229 23.6274 29.99C23.6625 30.0571 23.6808 30.1318 23.6808 30.2075V36.1049H36.3182V30.2071C36.3182 30.1313 36.3365 30.0567 36.3716 29.9895C36.4067 29.9224 36.4576 29.8648 36.5199 29.8216C36.5821 29.7784 36.6539 29.751 36.7291 29.7416C36.8043 29.7323 36.8806 29.7413 36.9515 29.7679L39.0047 30.5361C39.0941 30.5697 39.1711 30.6297 39.2255 30.7082C39.2798 30.7867 39.3089 30.8799 39.3089 30.9754V43.9724C39.3089 44.0967 39.2595 44.2159 39.1716 44.3039C39.0837 44.3918 38.9644 44.4411 38.8401 44.4411H38.8411ZM21.6276 43.5036H38.3723V31.3007L37.2567 30.883V36.5736C37.2567 36.698 37.2073 36.8172 37.1194 36.9051C37.0315 36.993 36.9123 37.0424 36.7879 37.0424H23.2129C23.0886 37.0424 22.9694 36.993 22.8815 36.9051C22.7936 36.8172 22.7442 36.698 22.7442 36.5736V30.883L21.6286 31.3007L21.6276 43.5036Z" fill="#2F3A5A"/>
<path d="M45.7968 28.5874V58.8283L49.3809 56.2751V32.291C49.3804 31.3294 49.0064 30.4056 48.3377 29.7146C47.6689 29.0235 46.7579 28.6194 45.7968 28.5874Z" fill="#F0F5F9"/>
<path d="M45.7969 59.297C45.6726 59.297 45.5533 59.2476 45.4654 59.1597C45.3775 59.0718 45.3281 58.9525 45.3281 58.8282V28.5873C45.3278 28.5245 45.3401 28.4624 45.3643 28.4045C45.3884 28.3466 45.424 28.2941 45.4688 28.2502C45.5138 28.2062 45.5673 28.1718 45.626 28.1491C45.6848 28.1265 45.7475 28.1161 45.8105 28.1185C46.8945 28.1503 47.9232 28.6042 48.6774 29.3835C49.4316 30.1628 49.8516 31.2059 49.8478 32.2904V56.2735C49.8478 56.3482 49.8299 56.4218 49.7956 56.4882C49.7614 56.5545 49.7118 56.6118 49.6509 56.6551L46.0669 59.2084C45.9882 59.2651 45.8939 59.2961 45.7969 59.297ZM46.2656 29.1095V57.9198L48.9122 56.034V32.2909C48.9146 31.5343 48.6508 30.801 48.1669 30.2193C47.6831 29.6377 47.01 29.2448 46.2656 29.1095Z" fill="#2F3A5A"/>
<path d="M14.2031 28.5874V58.8283L10.6191 56.2751V32.291C10.6195 31.3294 10.9936 30.4056 11.6623 29.7146C12.331 29.0235 13.2421 28.6194 14.2031 28.5874Z" fill="#F0F5F9"/>
<path d="M14.2031 59.2968C14.1056 59.2967 14.0106 59.2662 13.9313 59.2096L10.3472 56.6563C10.2864 56.613 10.2368 56.5558 10.2025 56.4894C10.1683 56.423 10.1504 56.3494 10.1503 56.2748V32.2907C10.1466 31.2062 10.5665 30.1631 11.3207 29.3838C12.0749 28.6045 13.1036 28.1506 14.1877 28.1188C14.2505 28.1172 14.313 28.128 14.3717 28.1506C14.4303 28.1732 14.4839 28.2072 14.5294 28.2505C14.5742 28.2944 14.6097 28.3469 14.6339 28.4048C14.658 28.4627 14.6703 28.5248 14.67 28.5876V58.828C14.67 58.9524 14.6206 59.0716 14.5327 59.1595C14.4448 59.2474 14.3256 59.2968 14.2013 59.2968H14.2031ZM11.0878 56.0329L13.7344 57.9187V29.1093C12.9897 29.2447 12.3164 29.6378 11.8325 30.2199C11.3486 30.8019 11.085 31.5357 11.0878 32.2926V56.0329Z" fill="#2F3A5A"/>
<path d="M46.0163 34.4307H13.9838C12.1814 34.3192 10.8211 33.7745 10.6191 32.1001V56.274C10.6191 57.1377 10.9621 57.966 11.5726 58.5768C12.1832 59.1876 13.0114 59.531 13.875 59.5313H46.125C46.9889 59.5313 47.8174 59.1882 48.4283 58.5773C49.0392 57.9664 49.3824 57.1379 49.3824 56.274V32.1001C49.1785 33.7759 47.8181 34.3196 46.0163 34.4307Z" fill="#F0F5F9"/>
<path d="M46.125 59.9997H13.875C12.8871 59.9986 11.94 59.6057 11.2415 58.9072C10.5429 58.2086 10.15 57.2615 10.1489 56.2737V32.0998C10.1487 31.9802 10.1942 31.865 10.2761 31.7779C10.358 31.6907 10.4701 31.6382 10.5895 31.631C10.7089 31.6238 10.8265 31.6625 10.9182 31.7392C11.01 31.8159 11.069 31.9248 11.0831 32.0435C11.2312 33.2712 12.1073 33.8449 14.0114 33.9626H45.9998C47.8945 33.8431 48.7655 33.2688 48.9141 32.0445C48.9282 31.9257 48.9872 31.8168 49.0789 31.7401C49.1707 31.6634 49.2883 31.6247 49.4077 31.6319C49.5271 31.6391 49.6392 31.6917 49.7211 31.7788C49.803 31.866 49.8485 31.9811 49.8483 32.1007V56.2746C49.8469 57.2618 49.4543 58.2083 48.7564 58.9065C48.0585 59.6048 47.1122 59.9979 46.125 59.9997ZM11.0878 33.9813V56.2737C11.0887 57.0127 11.3826 57.7213 11.905 58.244C12.4275 58.7668 13.1359 59.061 13.875 59.0622H46.125C46.8643 59.0614 47.5731 58.7673 48.0959 58.2445C48.6186 57.7218 48.9127 57.013 48.9136 56.2737V33.9841C47.9794 34.781 46.6219 34.8645 46.0462 34.9001H46.0172H13.9842C13.3889 34.863 12.0239 34.781 11.0878 33.9813Z" fill="#2F3A5A"/>
<path d="M50.3906 43.0195H47.8228C47.5781 43.0195 47.3434 43.1167 47.1703 43.2898C46.9973 43.4628 46.9001 43.6975 46.9001 43.9423C46.9001 44.187 46.9973 44.4217 47.1703 44.5947C47.3434 44.7678 47.5781 44.865 47.8228 44.865H50.3906C50.6354 44.865 50.8701 44.7678 51.0431 44.5947C51.2161 44.4217 51.3134 44.187 51.3134 43.9423C51.3134 43.6975 51.2161 43.4628 51.0431 43.2898C50.8701 43.1167 50.6354 43.0195 50.3906 43.0195Z" fill="#FDB978"/>
<path d="M50.3906 45.3335H47.8228C47.4582 45.3268 47.1108 45.1773 46.8553 44.917C46.5998 44.6568 46.4566 44.3067 46.4566 43.942C46.4566 43.5773 46.5998 43.2272 46.8553 42.967C47.1108 42.7068 47.4582 42.5572 47.8228 42.5505H50.3906C50.5755 42.5471 50.7592 42.5806 50.931 42.649C51.1028 42.7174 51.2592 42.8194 51.3912 42.9489C51.5231 43.0785 51.6279 43.233 51.6995 43.4035C51.771 43.574 51.8079 43.7571 51.8079 43.942C51.8079 44.1269 51.771 44.31 51.6995 44.4805C51.6279 44.651 51.5231 44.8055 51.3912 44.9351C51.2592 45.0646 51.1028 45.1666 50.931 45.235C50.7592 45.3034 50.5755 45.3369 50.3906 45.3335ZM47.8228 43.488C47.7049 43.4918 47.5931 43.5413 47.5111 43.626C47.4291 43.7108 47.3832 43.8241 47.3832 43.942C47.3832 44.06 47.4291 44.1733 47.5111 44.258C47.5931 44.3427 47.7049 44.3922 47.8228 44.396H50.3906C50.4515 44.3979 50.5121 44.3877 50.5689 44.3657C50.6257 44.3438 50.6775 44.3107 50.7212 44.2683C50.7649 44.226 50.7997 44.1753 50.8234 44.1192C50.8472 44.0631 50.8594 44.0029 50.8594 43.942C50.8594 43.8811 50.8472 43.8209 50.8234 43.7648C50.7997 43.7088 50.7649 43.6581 50.7212 43.6157C50.6775 43.5734 50.6257 43.5402 50.5689 43.5183C50.5121 43.4964 50.4515 43.4861 50.3906 43.488H47.8228Z" fill="#2F3A5A"/>
<path d="M50.3906 44.8933H47.8228C47.5781 44.8933 47.3434 44.9905 47.1703 45.1636C46.9973 45.3366 46.9001 45.5713 46.9001 45.816C46.9001 46.0608 46.9973 46.2955 47.1703 46.4685C47.3434 46.6416 47.5781 46.7388 47.8228 46.7388H50.3906C50.6354 46.7388 50.8701 46.6416 51.0431 46.4685C51.2161 46.2955 51.3134 46.0608 51.3134 45.816C51.3134 45.5713 51.2161 45.3366 51.0431 45.1636C50.8701 44.9905 50.6354 44.8933 50.3906 44.8933Z" fill="#FDB978"/>
<path d="M50.3906 47.2068H47.8228C47.4582 47.2001 47.1108 47.0505 46.8553 46.7903C46.5998 46.5301 46.4566 46.18 46.4566 45.8153C46.4566 45.4506 46.5998 45.1005 46.8553 44.8403C47.1108 44.5801 47.4582 44.4305 47.8228 44.4238H50.3906C50.5755 44.4204 50.7592 44.4539 50.931 44.5223C51.1028 44.5907 51.2592 44.6927 51.3912 44.8222C51.5231 44.9518 51.6279 45.1063 51.6995 45.2768C51.771 45.4473 51.8079 45.6304 51.8079 45.8153C51.8079 46.0002 51.771 46.1833 51.6995 46.3538C51.6279 46.5243 51.5231 46.6788 51.3912 46.8084C51.2592 46.9379 51.1028 47.0399 50.931 47.1083C50.7592 47.1767 50.5755 47.2102 50.3906 47.2068ZM47.8228 45.3613C47.7049 45.3651 47.5931 45.4146 47.5111 45.4993C47.4291 45.584 47.3832 45.6974 47.3832 45.8153C47.3832 45.9332 47.4291 46.0466 47.5111 46.1313C47.5931 46.216 47.7049 46.2655 47.8228 46.2693H50.3906C50.4515 46.2712 50.5121 46.2609 50.5689 46.239C50.6257 46.2171 50.6775 46.1839 50.7212 46.1416C50.7649 46.0992 50.7997 46.0485 50.8234 45.9925C50.8472 45.9364 50.8594 45.8762 50.8594 45.8153C50.8594 45.7544 50.8472 45.6942 50.8234 45.6381C50.7997 45.5821 50.7649 45.5314 50.7212 45.489C50.6775 45.4467 50.6257 45.4135 50.5689 45.3916C50.5121 45.3697 50.4515 45.3594 50.3906 45.3613H47.8228Z" fill="#2F3A5A"/>
<path d="M50.3906 46.7664H47.8228C47.5781 46.7664 47.3434 46.8636 47.1703 47.0366C46.9973 47.2097 46.9001 47.4444 46.9001 47.6891C46.9001 47.9338 46.9973 48.1685 47.1703 48.3416C47.3434 48.5146 47.5781 48.6118 47.8228 48.6118H50.3906C50.6354 48.6118 50.8701 48.5146 51.0431 48.3416C51.2161 48.1685 51.3134 47.9338 51.3134 47.6891C51.3134 47.4444 51.2161 47.2097 51.0431 47.0366C50.8701 46.8636 50.6354 46.7664 50.3906 46.7664Z" fill="#FDB978"/>
<path d="M50.3906 49.0784H47.8228C47.4582 49.0717 47.1108 48.9221 46.8553 48.6619C46.5998 48.4017 46.4566 48.0516 46.4566 47.6869C46.4566 47.3222 46.5998 46.9721 46.8553 46.7119C47.1108 46.4516 47.4582 46.3021 47.8228 46.2954H50.3906C50.5755 46.292 50.7592 46.3255 50.931 46.3939C51.1028 46.4623 51.2592 46.5643 51.3912 46.6938C51.5231 46.8233 51.6279 46.9779 51.6995 47.1484C51.771 47.3189 51.8079 47.502 51.8079 47.6869C51.8079 47.8718 51.771 48.0549 51.6995 48.2254C51.6279 48.3959 51.5231 48.5504 51.3912 48.68C51.2592 48.8095 51.1028 48.9115 50.931 48.9799C50.7592 49.0483 50.5755 49.0818 50.3906 49.0784ZM47.8228 47.2329C47.7049 47.2367 47.5931 47.2862 47.5111 47.3709C47.4291 47.4556 47.3832 47.5689 47.3832 47.6869C47.3832 47.8048 47.4291 47.9181 47.5111 48.0029C47.5931 48.0876 47.7049 48.1371 47.8228 48.1409H50.3906C50.4515 48.1428 50.5121 48.1325 50.5689 48.1106C50.6257 48.0887 50.6775 48.0555 50.7212 48.0132C50.7649 47.9708 50.7997 47.9201 50.8234 47.8641C50.8472 47.808 50.8594 47.7478 50.8594 47.6869C50.8594 47.626 50.8472 47.5658 50.8234 47.5097C50.7997 47.4536 50.7649 47.4029 50.7212 47.3606C50.6775 47.3182 50.6257 47.2851 50.5689 47.2632C50.5121 47.2412 50.4515 47.2309 50.3906 47.2329H47.8228Z" fill="#2F3A5A"/>
<path d="M50.3906 48.6392H48.592C48.3473 48.6392 48.1126 48.7364 47.9395 48.9094C47.7665 49.0825 47.6693 49.3172 47.6693 49.5619C47.6693 49.8066 47.7665 50.0413 47.9395 50.2144C48.1126 50.3874 48.3473 50.4846 48.592 50.4846H50.3906C50.6353 50.4846 50.87 50.3874 51.043 50.2144C51.2161 50.0413 51.3133 49.8066 51.3133 49.5619C51.3133 49.3172 51.2161 49.0825 51.043 48.9094C50.87 48.7364 50.6353 48.6392 50.3906 48.6392Z" fill="#FDB978"/>
<path d="M50.3907 50.9534H48.5921C48.2274 50.9467 47.88 50.7971 47.6245 50.5369C47.369 50.2767 47.2259 49.9266 47.2259 49.5619C47.2259 49.1972 47.369 48.8471 47.6245 48.5869C47.88 48.3266 48.2274 48.1771 48.5921 48.1704H50.3907C50.5755 48.167 50.7592 48.2005 50.931 48.2689C51.1028 48.3373 51.2593 48.4393 51.3912 48.5688C51.5232 48.6983 51.628 48.8529 51.6995 49.0234C51.7711 49.1939 51.8079 49.377 51.8079 49.5619C51.8079 49.7468 51.7711 49.9299 51.6995 50.1004C51.628 50.2709 51.5232 50.4254 51.3912 50.555C51.2593 50.6845 51.1028 50.7865 50.931 50.8549C50.7592 50.9233 50.5755 50.9568 50.3907 50.9534ZM48.5921 49.1079C48.4742 49.1117 48.3624 49.1612 48.2804 49.2459C48.1983 49.3306 48.1524 49.4439 48.1524 49.5619C48.1524 49.6798 48.1983 49.7931 48.2804 49.8779C48.3624 49.9626 48.4742 50.0121 48.5921 50.0159H50.3907C50.4515 50.0178 50.5121 50.0075 50.5689 49.9856C50.6257 49.9637 50.6775 49.9305 50.7212 49.8882C50.765 49.8458 50.7997 49.7951 50.8235 49.7391C50.8472 49.683 50.8595 49.6228 50.8595 49.5619C50.8595 49.501 50.8472 49.4408 50.8235 49.3847C50.7997 49.3286 50.765 49.2779 50.7212 49.2356C50.6775 49.1932 50.6257 49.1601 50.5689 49.1382C50.5121 49.1162 50.4515 49.1059 50.3907 49.1079H48.5921Z" fill="#2F3A5A"/>
<path d="M9.60938 43.0195H12.1772C12.4219 43.0195 12.6566 43.1167 12.8297 43.2898C13.0027 43.4628 13.0999 43.6975 13.0999 43.9423C13.0999 44.187 13.0027 44.4217 12.8297 44.5947C12.6566 44.7678 12.4219 44.865 12.1772 44.865H9.60938C9.36466 44.865 9.12995 44.7678 8.95691 44.5947C8.78386 44.4217 8.68665 44.187 8.68665 43.9423C8.68665 43.6975 8.78386 43.4628 8.95691 43.2898C9.12995 43.1167 9.36466 43.0195 9.60938 43.0195Z" fill="#FDB978"/>
<path d="M12.1791 45.3335H9.60937C9.42449 45.3369 9.24078 45.3034 9.06899 45.235C8.89719 45.1666 8.74075 45.0646 8.60881 44.9351C8.47686 44.8055 8.37205 44.651 8.3005 44.4805C8.22896 44.31 8.19211 44.1269 8.19211 43.942C8.19211 43.7571 8.22896 43.574 8.3005 43.4035C8.37205 43.233 8.47686 43.0785 8.60881 42.9489C8.74075 42.8194 8.89719 42.7174 9.06899 42.649C9.24078 42.5806 9.42449 42.5471 9.60937 42.5505H12.1772C12.5418 42.5572 12.8892 42.7068 13.1447 42.967C13.4002 43.2272 13.5434 43.5773 13.5434 43.942C13.5434 44.3067 13.4002 44.6568 13.1447 44.917C12.8892 45.1773 12.5418 45.3268 12.1772 45.3335H12.1791ZM9.60937 43.488C9.54852 43.4861 9.4879 43.4964 9.43112 43.5183C9.37433 43.5402 9.32253 43.5734 9.2788 43.6157C9.23506 43.6581 9.20029 43.7088 9.17654 43.7648C9.1528 43.8209 9.14056 43.8811 9.14056 43.942C9.14056 44.0029 9.1528 44.0631 9.17654 44.1192C9.20029 44.1753 9.23506 44.226 9.2788 44.2683C9.32253 44.3107 9.37433 44.3438 9.43112 44.3657C9.4879 44.3877 9.54852 44.3979 9.60937 44.396H12.1772C12.2951 44.3922 12.4068 44.3427 12.4889 44.258C12.5709 44.1733 12.6168 44.06 12.6168 43.942C12.6168 43.8241 12.5709 43.7108 12.4889 43.626C12.4068 43.5413 12.2951 43.4918 12.1772 43.488H9.60937Z" fill="#2F3A5A"/>
<path d="M9.60938 44.8933H12.1772C12.4219 44.8933 12.6566 44.9905 12.8297 45.1636C13.0027 45.3366 13.0999 45.5713 13.0999 45.816C13.0999 46.0608 13.0027 46.2955 12.8297 46.4685C12.6566 46.6416 12.4219 46.7388 12.1772 46.7388H9.60938C9.36466 46.7388 9.12995 46.6416 8.95691 46.4685C8.78386 46.2955 8.68665 46.0608 8.68665 45.816C8.68665 45.5713 8.78386 45.3366 8.95691 45.1636C9.12995 44.9905 9.36466 44.8933 9.60938 44.8933Z" fill="#FDB978"/>
<path d="M12.1791 47.2068H9.60937C9.42449 47.2102 9.24078 47.1767 9.06899 47.1083C8.89719 47.0399 8.74075 46.9379 8.60881 46.8084C8.47686 46.6788 8.37205 46.5243 8.3005 46.3538C8.22896 46.1833 8.19211 46.0002 8.19211 45.8153C8.19211 45.6304 8.22896 45.4473 8.3005 45.2768C8.37205 45.1063 8.47686 44.9518 8.60881 44.8222C8.74075 44.6927 8.89719 44.5907 9.06899 44.5223C9.24078 44.4539 9.42449 44.4204 9.60937 44.4238H12.1772C12.5418 44.4305 12.8892 44.5801 13.1447 44.8403C13.4002 45.1005 13.5434 45.4506 13.5434 45.8153C13.5434 46.18 13.4002 46.5301 13.1447 46.7903C12.8892 47.0505 12.5418 47.2001 12.1772 47.2068H12.1791ZM9.60937 45.3613C9.54852 45.3594 9.4879 45.3697 9.43112 45.3916C9.37433 45.4135 9.32253 45.4467 9.2788 45.489C9.23506 45.5314 9.20029 45.5821 9.17654 45.6381C9.1528 45.6942 9.14056 45.7544 9.14056 45.8153C9.14056 45.8762 9.1528 45.9364 9.17654 45.9925C9.20029 46.0485 9.23506 46.0992 9.2788 46.1416C9.32253 46.1839 9.37433 46.2171 9.43112 46.239C9.4879 46.2609 9.54852 46.2712 9.60937 46.2693H12.1772C12.2951 46.2655 12.4068 46.216 12.4889 46.1313C12.5709 46.0466 12.6168 45.9332 12.6168 45.8153C12.6168 45.6974 12.5709 45.584 12.4889 45.4993C12.4068 45.4146 12.2951 45.3651 12.1772 45.3613H9.60937Z" fill="#2F3A5A"/>
<path d="M9.60938 46.7664H12.1772C12.4219 46.7664 12.6566 46.8636 12.8297 47.0366C13.0027 47.2097 13.0999 47.4444 13.0999 47.6891C13.0999 47.9338 13.0027 48.1685 12.8297 48.3416C12.6566 48.5146 12.4219 48.6118 12.1772 48.6118H9.60938C9.36466 48.6118 9.12995 48.5146 8.95691 48.3416C8.78386 48.1685 8.68665 47.9338 8.68665 47.6891C8.68665 47.4444 8.78386 47.2097 8.95691 47.0366C9.12995 46.8636 9.36466 46.7664 9.60938 46.7664Z" fill="#FDB978"/>
<path d="M12.1791 49.0784H9.60937C9.42449 49.0818 9.24078 49.0483 9.06899 48.9799C8.89719 48.9115 8.74075 48.8095 8.60881 48.68C8.47686 48.5504 8.37205 48.3959 8.3005 48.2254C8.22896 48.0549 8.19211 47.8718 8.19211 47.6869C8.19211 47.502 8.22896 47.3189 8.3005 47.1484C8.37205 46.9779 8.47686 46.8233 8.60881 46.6938C8.74075 46.5643 8.89719 46.4623 9.06899 46.3939C9.24078 46.3255 9.42449 46.292 9.60937 46.2954H12.1772C12.5418 46.3021 12.8892 46.4516 13.1447 46.7119C13.4002 46.9721 13.5434 47.3222 13.5434 47.6869C13.5434 48.0516 13.4002 48.4017 13.1447 48.6619C12.8892 48.9221 12.5418 49.0717 12.1772 49.0784H12.1791ZM9.60937 47.2352C9.54852 47.2333 9.4879 47.2436 9.43112 47.2655C9.37433 47.2875 9.32253 47.3206 9.2788 47.3629C9.23506 47.4053 9.20029 47.456 9.17654 47.512C9.1528 47.5681 9.14056 47.6284 9.14056 47.6892C9.14056 47.7501 9.1528 47.8104 9.17654 47.8664C9.20029 47.9225 9.23506 47.9732 9.2788 48.0155C9.32253 48.0579 9.37433 48.091 9.43112 48.1129C9.4879 48.1349 9.54852 48.1452 9.60937 48.1432H12.1772C12.2951 48.1394 12.4068 48.0899 12.4889 48.0052C12.5709 47.9205 12.6168 47.8072 12.6168 47.6892C12.6168 47.5713 12.5709 47.458 12.4889 47.3732C12.4068 47.2885 12.2951 47.239 12.1772 47.2352H9.60937Z" fill="#2F3A5A"/>
<path d="M9.60938 48.6392H11.408C11.6527 48.6392 11.8874 48.7364 12.0604 48.9094C12.2335 49.0825 12.3307 49.3172 12.3307 49.5619C12.3307 49.8066 12.2335 50.0413 12.0604 50.2144C11.8874 50.3874 11.6527 50.4846 11.408 50.4846H9.60938C9.36466 50.4846 9.12995 50.3874 8.95691 50.2144C8.78386 50.0413 8.68665 49.8066 8.68665 49.5619C8.68665 49.3172 8.78386 49.0825 8.95691 48.9094C9.12995 48.7364 9.36466 48.6392 9.60938 48.6392Z" fill="#FDB978"/>
<path d="M11.4103 50.9534H9.60937C9.42449 50.9568 9.24078 50.9233 9.06899 50.8549C8.89719 50.7865 8.74075 50.6845 8.60881 50.555C8.47686 50.4254 8.37205 50.2709 8.3005 50.1004C8.22896 49.9299 8.19211 49.7468 8.19211 49.5619C8.19211 49.377 8.22896 49.1939 8.3005 49.0234C8.37205 48.8529 8.47686 48.6983 8.60881 48.5688C8.74075 48.4393 8.89719 48.3373 9.06899 48.2689C9.24078 48.2005 9.42449 48.167 9.60937 48.1704H11.408C11.7726 48.1771 12.12 48.3266 12.3755 48.5869C12.631 48.8471 12.7741 49.1972 12.7741 49.5619C12.7741 49.9266 12.631 50.2767 12.3755 50.5369C12.12 50.7971 11.7726 50.9467 11.408 50.9534H11.4103ZM9.60937 49.1084C9.54852 49.1064 9.4879 49.1167 9.43112 49.1386C9.37433 49.1606 9.32253 49.1937 9.2788 49.2361C9.23506 49.2784 9.20029 49.3291 9.17654 49.3852C9.1528 49.4412 9.14056 49.5015 9.14056 49.5624C9.14056 49.6232 9.1528 49.6835 9.17654 49.7395C9.20029 49.7956 9.23506 49.8463 9.2788 49.8887C9.32253 49.931 9.37433 49.9641 9.43112 49.9861C9.4879 50.008 9.54852 50.0183 9.60937 50.0163H11.408C11.5258 50.0125 11.6376 49.9631 11.7197 49.8783C11.8017 49.7936 11.8476 49.6803 11.8476 49.5624C11.8476 49.4444 11.8017 49.3311 11.7197 49.2464C11.6376 49.1616 11.5258 49.1122 11.408 49.1084H9.60937Z" fill="#2F3A5A"/>
</g>
<defs>
<filter id="filter0_d" x="-4" y="0" width="68" height="68" filterUnits="userSpaceOnUse" color-interpolation-filters="sRGB">
<feFlood flood-opacity="0" result="BackgroundImageFix"/>
<feColorMatrix in="SourceAlpha" type="matrix" values="0 0 0 0 0 0 0 0 0 0 0 0 0 0 0 0 0 0 127 0"/>
<feOffset dy="4"/>
<feGaussianBlur stdDeviation="2"/>
<feColorMatrix type="matrix" values="0 0 0 0 0 0 0 0 0 0 0 0 0 0 0 0 0 0 0.25 0"/>
<feBlend mode="normal" in2="BackgroundImageFix" result="effect1_dropShadow"/>
<feBlend mode="normal" in="SourceGraphic" in2="effect1_dropShadow" result="shape"/>
</filter>
<clipPath id="clip0">
<rect width="60" height="60" fill="white"/>
</clipPath>
</defs>
</svg>
