<svg width="60" height="68" viewBox="0 0 60 68" fill="none" xmlns="http://www.w3.org/2000/svg">
<g filter="url(#filter0_d)">
<path d="M43.7335 20.6479H16.2754C15.1622 20.6479 14.2598 21.5504 14.2598 22.6636V22.6644C14.2598 23.7777 15.1622 24.6801 16.2754 24.6801H43.7335C44.8468 24.6801 45.7492 23.7777 45.7492 22.6644V22.6636C45.7492 21.5504 44.8468 20.6479 43.7335 20.6479Z" fill="#89C5CD"/>
<path d="M41.1162 31.5406C42.5645 29.5283 43.4313 27.1563 43.6216 24.6843H16.3783C16.5683 27.1561 17.4351 29.528 18.8837 31.5397C19.2136 31.9974 19.6476 32.3701 20.1499 32.6268C20.6523 32.8836 21.2085 33.017 21.7727 33.0162H38.2264C38.7907 33.0173 39.3471 32.8841 39.8496 32.6274C40.3521 32.3708 40.7862 31.9983 41.1162 31.5406Z" fill="#D9E2E9"/>
<path d="M44.5184 47.5491C45.9652 45.5372 46.8308 43.1661 47.0206 40.6953H12.973C13.1629 43.1671 14.0298 45.5389 15.4784 47.5507C15.8082 48.0084 16.2423 48.381 16.7446 48.6378C17.247 48.8945 17.8032 49.028 18.3673 49.0272H41.6295C42.1938 49.0279 42.7502 48.8942 43.2525 48.6371C43.7549 48.3801 44.1888 48.0071 44.5184 47.5491Z" fill="#D9E2E9"/>
<path d="M43.6216 24.6812C43.4306 27.154 42.564 29.5268 41.1161 31.5406C40.7874 31.9987 40.3539 32.3717 39.8518 32.6284C39.3497 32.885 38.7936 33.018 38.2297 33.0163H21.7783C21.2135 33.017 20.6565 32.8836 20.1533 32.6271C19.6501 32.3705 19.2149 31.9982 18.8837 31.5406C18.6134 31.1702 18.3669 30.7829 18.1459 30.3811C18.7395 30.7829 19.4399 30.9975 20.1567 30.9974H36.608C37.1719 30.9991 37.7281 30.8661 38.2302 30.6094C38.7323 30.3528 39.1658 29.9798 39.4945 29.5217C40.5347 28.0664 41.281 26.4222 41.6918 24.6812H43.6216Z" fill="#C1CDD3"/>
<path d="M47.0189 40.6948C46.8294 43.1642 45.9656 45.5341 44.5216 47.5462C44.191 48.0049 43.7562 48.3786 43.253 48.6365C42.7497 48.8945 42.1925 49.0293 41.627 49.03H18.3649C17.8013 49.0299 17.2458 48.8962 16.744 48.6396C16.2422 48.3831 15.8084 48.0111 15.4784 47.5543C15.2105 47.1911 14.9694 46.8091 14.7568 46.411C15.3468 46.7994 16.0369 47.0078 16.7432 47.011H40.0054C40.57 47.0102 41.1264 46.8761 41.6294 46.6197C42.1323 46.3633 42.5677 45.9918 42.9 45.5354C43.9409 44.0815 44.6848 42.4366 45.0892 40.6948H47.0189Z" fill="#C1CDD3"/>
<path d="M27.4492 36.6592V33.0171H32.5582V36.6592" fill="#9297AB"/>
<path d="M32.5581 37.064C32.4506 37.064 32.3475 37.0213 32.2714 36.9452C32.1954 36.8692 32.1527 36.7661 32.1527 36.6586V33.4226H27.8554V36.6594C27.8554 36.7669 27.8127 36.87 27.7367 36.9461C27.6606 37.0221 27.5575 37.0648 27.45 37.0648C27.3425 37.0648 27.2394 37.0221 27.1633 36.9461C27.0873 36.87 27.0446 36.7669 27.0446 36.6594V33.0172C27.0446 32.9097 27.0873 32.8066 27.1633 32.7306C27.2394 32.6545 27.3425 32.6118 27.45 32.6118H32.5581C32.6656 32.6118 32.7687 32.6545 32.8448 32.7306C32.9208 32.8066 32.9635 32.9097 32.9635 33.0172V36.6594C32.9633 36.7668 32.9205 36.8697 32.8445 36.9455C32.7685 37.0214 32.6655 37.064 32.5581 37.064Z" fill="#323C6B"/>
<path d="M27.4492 54.2003V49.0273H32.5582V54.2003" fill="#9297AB"/>
<path d="M32.5581 54.6059C32.4506 54.6059 32.3475 54.5631 32.2714 54.4871C32.1954 54.4111 32.1527 54.308 32.1527 54.2005V49.4329H27.8554V54.2005C27.8554 54.308 27.8127 54.4111 27.7367 54.4871C27.6606 54.5631 27.5575 54.6059 27.45 54.6059C27.3425 54.6059 27.2394 54.5631 27.1633 54.4871C27.0873 54.4111 27.0446 54.308 27.0446 54.2005V49.0275C27.0446 48.92 27.0873 48.8168 27.1633 48.7408C27.2394 48.6648 27.3425 48.6221 27.45 48.6221H32.5581C32.6656 48.6221 32.7687 48.6648 32.8448 48.7408C32.9208 48.8168 32.9635 48.92 32.9635 49.0275V54.2005C32.9635 54.308 32.9208 54.4111 32.8448 54.4871C32.7687 54.5631 32.6656 54.6059 32.5581 54.6059Z" fill="#323C6B"/>
<path d="M39.7225 58.7561C39.6639 57.5286 39.1352 56.3706 38.2459 55.5224C37.3566 54.6741 36.1749 54.2007 34.946 54.2002H25.0622C23.8329 54.2003 22.6509 54.6735 21.7612 55.5218C20.8716 56.3701 20.3426 57.5283 20.2841 58.7561H39.7225Z" fill="#9297AB"/>
<path d="M39.7225 59.1617H20.2841C20.2292 59.1617 20.1749 59.1506 20.1244 59.1291C20.0739 59.1075 20.0283 59.0759 19.9904 59.0361C19.9524 58.9964 19.923 58.9494 19.9038 58.8979C19.8846 58.8465 19.8761 58.7917 19.8787 58.7368C19.9423 57.4048 20.5161 56.1485 21.4813 55.2283C22.4464 54.3082 23.7287 53.7949 25.0622 53.7949H34.946C36.2795 53.7949 37.5618 54.3082 38.527 55.2283C39.4921 56.1485 40.066 57.4048 40.1295 58.7368C40.1322 58.7917 40.1236 58.8465 40.1045 58.8979C40.0853 58.9494 40.0558 58.9964 40.0179 59.0361C39.98 59.0759 39.9344 59.1075 39.8839 59.1291C39.8334 59.1506 39.7791 59.1617 39.7241 59.1617H39.7225ZM20.7301 58.3509H39.2766C39.1245 57.3107 38.6034 56.36 37.8083 55.6724C37.0132 54.9848 35.9972 54.6062 34.946 54.6057H25.0622C24.0108 54.6058 22.9944 54.9842 22.199 55.6719C21.4036 56.3595 20.8821 57.3105 20.7301 58.3509Z" fill="#323C6B"/>
<path d="M30.004 21.0535C29.8965 21.0535 29.7934 21.0108 29.7174 20.9348C29.6414 20.8587 29.5986 20.7556 29.5986 20.6481V10.2973C29.5986 8.94468 29.0613 7.64748 28.1049 6.69104C27.1485 5.73461 25.8513 5.19729 24.4986 5.19729C23.146 5.19729 21.8488 5.73461 20.8924 6.69104C19.936 7.64748 19.3987 8.94468 19.3987 10.2973V11.6838C19.3987 11.7913 19.3559 11.8944 19.2799 11.9704C19.2039 12.0465 19.1008 12.0892 18.9932 12.0892C18.8857 12.0892 18.7826 12.0465 18.7066 11.9704C18.6306 11.8944 18.5878 11.7913 18.5878 11.6838V10.2973C18.5878 9.52107 18.7407 8.75245 19.0378 8.03532C19.3348 7.31818 19.7702 6.66658 20.3191 6.11771C20.8679 5.56884 21.5196 5.13345 22.2367 4.83641C22.9538 4.53936 23.7224 4.38647 24.4986 4.38647C25.2749 4.38647 26.0435 4.53936 26.7606 4.83641C27.4777 5.13345 28.1293 5.56884 28.6782 6.11771C29.2271 6.66658 29.6625 7.31818 29.9595 8.03532C30.2566 8.75245 30.4095 9.52107 30.4095 10.2973V20.6481C30.4095 20.7556 30.3667 20.8587 30.2907 20.9348C30.2147 21.0108 30.1116 21.0535 30.004 21.0535Z" fill="#323C6B"/>
<path d="M30.0041 21.0535C29.8966 21.0535 29.7935 21.0108 29.7175 20.9348C29.6414 20.8587 29.5987 20.7556 29.5987 20.6481V1.24378C29.5987 1.13626 29.6414 1.03315 29.7175 0.957119C29.7935 0.881091 29.8966 0.838379 30.0041 0.838379C30.1117 0.838379 30.2148 0.881091 30.2908 0.957119C30.3668 1.03315 30.4095 1.13626 30.4095 1.24378V20.6481C30.4095 20.7556 30.3668 20.8587 30.2908 20.9348C30.2148 21.0108 30.1117 21.0535 30.0041 21.0535Z" fill="#323C6B"/>
<path d="M18.9932 12.0884C18.8857 12.0884 18.7826 12.0457 18.7066 11.9696C18.6306 11.8936 18.5878 11.7905 18.5878 11.683V10.2973C18.5878 9.52107 18.7407 8.75245 19.0378 8.03532C19.3348 7.31818 19.7702 6.66658 20.3191 6.11771C20.8679 5.56884 21.5196 5.13345 22.2367 4.83641C22.9538 4.53936 23.7224 4.38647 24.4986 4.38647C25.2749 4.38647 26.0435 4.53936 26.7606 4.83641C27.4777 5.13345 28.1293 5.56884 28.6782 6.11771C29.2271 6.66658 29.6625 7.31818 29.9595 8.03532C30.2566 8.75245 30.4095 9.52107 30.4095 10.2973C30.4095 10.4048 30.3667 10.5079 30.2907 10.584C30.2147 10.66 30.1116 10.7027 30.004 10.7027C29.8965 10.7027 29.7934 10.66 29.7174 10.584C29.6414 10.5079 29.5986 10.4048 29.5986 10.2973C29.5986 8.94468 29.0613 7.64748 28.1049 6.69104C27.1485 5.73461 25.8513 5.19729 24.4986 5.19729C23.146 5.19729 21.8488 5.73461 20.8924 6.69104C19.936 7.64748 19.3987 8.94468 19.3987 10.2973V11.6838C19.3984 11.7912 19.3556 11.8941 19.2796 11.9699C19.2036 12.0458 19.1006 12.0884 18.9932 12.0884Z" fill="#323C6B"/>
<path d="M30.004 17.7641C29.8965 17.7641 29.7934 17.7214 29.7174 17.6453C29.6413 17.5693 29.5986 17.4662 29.5986 17.3587V16.6654C29.5634 16.0667 29.3008 15.5041 28.8645 15.0927C28.4281 14.6812 27.8511 14.4521 27.2513 14.4521C26.6516 14.4521 26.0745 14.6812 25.6382 15.0927C25.2019 15.5041 24.9392 16.0667 24.904 16.6654C24.904 16.7729 24.8613 16.8761 24.7853 16.9521C24.7093 17.0281 24.6061 17.0708 24.4986 17.0708C24.3911 17.0708 24.288 17.0281 24.212 16.9521C24.1359 16.8761 24.0932 16.7729 24.0932 16.6654C24.1343 15.8555 24.4849 15.0923 25.0727 14.5336C25.6604 13.9749 26.4404 13.6633 27.2513 13.6633C28.0623 13.6633 28.8422 13.9749 29.43 14.5336C30.0178 15.0923 30.3684 15.8555 30.4094 16.6654V17.3587C30.4094 17.4662 30.3667 17.5693 30.2907 17.6453C30.2147 17.7214 30.1116 17.7641 30.004 17.7641Z" fill="#323C6B"/>
<path d="M41.015 12.0884C40.9074 12.0884 40.8043 12.0457 40.7283 11.9696C40.6523 11.8936 40.6095 11.7905 40.6095 11.683V10.2973C40.6095 8.94468 40.0722 7.64748 39.1158 6.69104C38.1594 5.73461 36.8621 5.19729 35.5095 5.19729C34.1569 5.19729 32.8597 5.73461 31.9033 6.69104C30.9469 7.64748 30.4095 8.94468 30.4095 10.2973C30.4095 10.4048 30.3668 10.5079 30.2908 10.584C30.2148 10.66 30.1117 10.7027 30.0041 10.7027C29.8966 10.7027 29.7935 10.66 29.7175 10.584C29.6414 10.5079 29.5987 10.4048 29.5987 10.2973C29.5987 8.72964 30.2215 7.2262 31.33 6.11771C32.4385 5.00922 33.9419 4.38647 35.5095 4.38647C37.0772 4.38647 38.5806 5.00922 39.6891 6.11771C40.7976 7.2262 41.4204 8.72964 41.4204 10.2973V11.6838C41.4201 11.7912 41.3773 11.8941 41.3013 11.9699C41.2253 12.0458 41.1223 12.0884 41.015 12.0884Z" fill="#323C6B"/>
<path d="M30.0041 17.7641C29.8966 17.7641 29.7935 17.7214 29.7175 17.6453C29.6414 17.5693 29.5987 17.4662 29.5987 17.3587V16.6654C29.6398 15.8555 29.9904 15.0923 30.5782 14.5336C31.1659 13.9749 31.9459 13.6633 32.7568 13.6633C33.5678 13.6633 34.3477 13.9749 34.9355 14.5336C35.5232 15.0923 35.8739 15.8555 35.9149 16.6654C35.9149 16.7729 35.8722 16.8761 35.7962 16.9521C35.7202 17.0281 35.617 17.0708 35.5095 17.0708C35.402 17.0708 35.2989 17.0281 35.2229 16.9521C35.1468 16.8761 35.1041 16.7729 35.1041 16.6654C35.0689 16.0667 34.8063 15.5041 34.3699 15.0927C33.9336 14.6812 33.3565 14.4521 32.7568 14.4521C32.1571 14.4521 31.58 14.6812 31.1437 15.0927C30.7074 15.5041 30.4447 16.0667 30.4095 16.6654V17.3587C30.4095 17.4662 30.3668 17.5693 30.2908 17.6453C30.2148 17.7214 30.1116 17.7641 30.0041 17.7641Z" fill="#323C6B"/>
<path d="M16.7027 33.0638C16.6363 33.0639 16.5709 33.0477 16.5122 33.0166C16.4536 32.9855 16.4034 32.9404 16.3662 32.8854L16.1676 32.5846C16.1387 32.5399 16.1189 32.4899 16.1093 32.4375C16.0997 32.3852 16.1005 32.3314 16.1117 32.2793C16.1342 32.1742 16.1977 32.0823 16.288 32.0239C16.3783 31.9656 16.4881 31.9454 16.5933 31.968C16.6984 31.9906 16.7903 32.054 16.8487 32.1443L17.0384 32.4314C17.0796 32.4923 17.1034 32.5634 17.1073 32.6368C17.1113 32.7103 17.0951 32.7835 17.0606 32.8485C17.0261 32.9135 16.9746 32.9678 16.9115 33.0058C16.8485 33.0437 16.7763 33.0638 16.7027 33.0638Z" fill="#323C6B"/>
<path d="M15.6884 31.3516C15.6138 31.3516 15.5406 31.3311 15.477 31.2921C15.4133 31.2532 15.3616 31.1975 15.3276 31.1311C14.5975 29.7128 14.0775 28.1958 13.7838 26.6279C13.7732 26.5752 13.7732 26.5209 13.7837 26.4682C13.7942 26.4155 13.8152 26.3654 13.8452 26.3209C13.8753 26.2763 13.9139 26.2382 13.9589 26.2087C14.0038 26.1793 14.0542 26.159 14.107 26.1492C14.1599 26.1393 14.2141 26.1401 14.2667 26.1514C14.3192 26.1628 14.369 26.1844 14.4131 26.2152C14.4572 26.2459 14.4947 26.2851 14.5235 26.3305C14.5523 26.3759 14.5718 26.4265 14.5808 26.4795C14.8592 27.97 15.3528 29.4121 16.046 30.7606C16.0776 30.8223 16.0929 30.8911 16.0903 30.9605C16.0877 31.0298 16.0674 31.0973 16.0313 31.1565C15.9952 31.2158 15.9445 31.2647 15.884 31.2987C15.8235 31.3328 15.7554 31.3507 15.686 31.3508L15.6884 31.3516Z" fill="#323C6B"/>
<path d="M47.2266 48.2435C47.155 48.2434 47.0846 48.2243 47.0228 48.1883C46.9609 48.1522 46.9097 48.1004 46.8744 48.0381C46.839 47.9759 46.8208 47.9053 46.8216 47.8337C46.8224 47.7621 46.8421 47.692 46.8787 47.6305C46.9604 47.4937 47.0395 47.3559 47.1163 47.217C47.1412 47.1688 47.1755 47.126 47.2172 47.0913C47.2589 47.0566 47.3072 47.0306 47.3591 47.0149C47.4111 46.9992 47.4656 46.9941 47.5196 46.9999C47.5735 47.0056 47.6258 47.0222 47.6732 47.0485C47.7207 47.0748 47.7624 47.1104 47.7958 47.1531C47.8292 47.1959 47.8538 47.2449 47.8679 47.2973C47.8821 47.3496 47.8855 47.4043 47.8782 47.4581C47.8708 47.5119 47.8527 47.5636 47.8249 47.6102C47.7439 47.7562 47.6606 47.9013 47.5752 48.0456C47.5392 48.106 47.4882 48.156 47.4271 48.1906C47.3659 48.2253 47.2968 48.2435 47.2266 48.2435Z" fill="#323C6B"/>
<path d="M41.6278 51.8649C41.5203 51.8649 41.4172 51.8222 41.3412 51.7462C41.2652 51.6702 41.2224 51.567 41.2224 51.4595C41.2224 51.352 41.2652 51.2489 41.3412 51.1729C41.4172 51.0968 41.5203 51.0541 41.6278 51.0541C42.4854 51.0514 43.3309 50.852 44.0993 50.4714C44.8678 50.0907 45.5387 49.539 46.0605 48.8584C46.0922 48.8145 46.1323 48.7773 46.1786 48.7491C46.2248 48.721 46.2763 48.7023 46.3299 48.6944C46.3834 48.6864 46.4381 48.6892 46.4905 48.7027C46.543 48.7162 46.5922 48.7401 46.6353 48.7729C46.6784 48.8058 46.7144 48.8469 46.7413 48.8939C46.7682 48.9409 46.7855 48.9928 46.792 49.0466C46.7985 49.1004 46.7942 49.1549 46.7792 49.207C46.7643 49.2591 46.7391 49.3076 46.7051 49.3498C46.1074 50.1293 45.339 50.7614 44.4588 51.1974C43.5786 51.6334 42.6101 51.8618 41.6278 51.8649Z" fill="#323C6B"/>
<path d="M47.1357 36.6592H12.8651C11.7519 36.6592 10.8495 37.5616 10.8495 38.6749V38.6757C10.8495 39.7889 11.7519 40.6913 12.8651 40.6913H47.1357C48.2489 40.6913 49.1514 39.7889 49.1514 38.6757V38.6749C49.1514 37.5616 48.2489 36.6592 47.1357 36.6592Z" fill="#89C5CD"/>
<path d="M45.7459 22.6622C45.7468 22.9269 45.6954 23.1891 45.5948 23.4339C45.4941 23.6787 45.3462 23.9013 45.1594 24.0888C44.9726 24.2763 44.7506 24.4252 44.5062 24.5268C44.2618 24.6285 43.9998 24.6809 43.7351 24.6811H41.6027C41.8674 24.6809 42.1294 24.6285 42.3738 24.5268C42.6182 24.4252 42.8401 24.2763 43.0269 24.0888C43.2137 23.9013 43.3617 23.6787 43.4623 23.4339C43.563 23.1891 43.6143 22.9269 43.6135 22.6622C43.6107 22.1297 43.398 21.6199 43.0215 21.2434C42.645 20.8669 42.1351 20.6541 41.6027 20.6514H43.7351C43.9989 20.6518 44.2601 20.7043 44.5036 20.8059C44.747 20.9075 44.9681 21.0561 45.154 21.2433C45.3425 21.4282 45.492 21.6491 45.5936 21.8928C45.6953 22.1365 45.7471 22.3981 45.7459 22.6622Z" fill="#6EAAAD"/>
<path d="M49.1513 38.6757C49.1513 38.9408 49.0991 39.2033 48.9977 39.4483C48.8962 39.6932 48.7475 39.9158 48.56 40.1033C48.3725 40.2907 48.15 40.4394 47.905 40.5409C47.6601 40.6424 47.3976 40.6946 47.1324 40.6946H45C45.5354 40.6946 46.049 40.4819 46.4276 40.1033C46.8062 39.7246 47.0189 39.2111 47.0189 38.6757C47.0189 38.1402 46.8062 37.6267 46.4276 37.2481C46.049 36.8694 45.5354 36.6567 45 36.6567H47.1324C47.6677 36.6572 48.181 36.87 48.5595 37.2485C48.9381 37.6271 49.1509 38.1403 49.1513 38.6757Z" fill="#6EAAAD"/>
<path d="M38.2265 33.4225H21.776C21.1474 33.4228 20.5278 33.2738 19.9681 32.9876C19.4085 32.7014 18.9248 32.2863 18.5571 31.7765C17.0667 29.7036 16.174 27.2614 15.9763 24.716C15.972 24.6602 15.9794 24.6042 15.9978 24.5514C16.0163 24.4986 16.0455 24.4502 16.0835 24.4092C16.1216 24.3682 16.1678 24.3356 16.2191 24.3133C16.2704 24.291 16.3257 24.2796 16.3817 24.2798H43.6217C43.6776 24.2796 43.733 24.291 43.7843 24.3133C43.8356 24.3356 43.8817 24.3682 43.9198 24.4092C43.9579 24.4502 43.9871 24.4986 44.0055 24.5514C44.024 24.6042 44.0313 24.6602 44.0271 24.716C43.8296 27.2605 42.9384 29.7023 41.4503 31.7757C41.0822 32.2864 40.5979 32.7021 40.0373 32.9884C39.4767 33.2748 38.856 33.4236 38.2265 33.4225ZM16.826 25.0898C17.0761 27.332 17.8993 29.472 19.2163 31.3038C19.5088 31.709 19.8934 32.0389 20.3385 32.2663C20.7835 32.4937 21.2762 32.6121 21.776 32.6117H38.2265C38.726 32.6117 39.2183 32.493 39.6629 32.2655C40.1075 32.038 40.4917 31.7081 40.7838 31.303C42.099 29.4708 42.9209 27.3312 43.1709 25.0898H16.826Z" fill="#323C6B"/>
<path d="M41.6278 49.4327H18.3656C17.737 49.4332 17.1173 49.2842 16.5577 48.998C15.998 48.7118 15.5144 48.2967 15.1467 47.7868C13.657 45.7137 12.7648 43.2715 12.5675 40.7263C12.5633 40.6705 12.5706 40.6144 12.5891 40.5616C12.6075 40.5088 12.6367 40.4604 12.6748 40.4195C12.7129 40.3785 12.759 40.3458 12.8103 40.3236C12.8616 40.3013 12.917 40.2899 12.9729 40.29H47.0205C47.0764 40.2899 47.1318 40.3013 47.1831 40.3236C47.2344 40.3458 47.2806 40.3785 47.3186 40.4195C47.3567 40.4604 47.3859 40.5088 47.4044 40.5616C47.4228 40.6144 47.4302 40.6705 47.4259 40.7263C47.2284 43.2705 46.3372 45.712 44.8492 47.7852C44.4814 48.2956 43.9975 48.7113 43.4373 48.9978C42.8772 49.2842 42.2569 49.4333 41.6278 49.4327ZM13.4156 41.1009C13.6658 43.343 14.489 45.4831 15.8059 47.3149C16.0984 47.7201 16.4831 48.05 16.9281 48.2774C17.3732 48.5048 17.8659 48.6231 18.3656 48.6227H41.6278C42.128 48.6233 42.6212 48.5049 43.0665 48.2772C43.5119 48.0495 43.8967 47.7191 44.1892 47.3133C45.5043 45.4814 46.3263 43.3421 46.5762 41.1009H13.4156Z" fill="#323C6B"/>
<path d="M43.7327 25.0856H16.2754C15.6332 25.0856 15.0173 24.8305 14.5632 24.3764C14.109 23.9223 13.8539 23.3064 13.8539 22.6642C13.8539 22.0219 14.109 21.406 14.5632 20.9519C15.0173 20.4978 15.6332 20.2427 16.2754 20.2427H43.7327C44.3749 20.2427 44.9908 20.4978 45.445 20.9519C45.8991 21.406 46.1542 22.0219 46.1542 22.6642C46.1542 23.3064 45.8991 23.9223 45.445 24.3764C44.9908 24.8305 44.3749 25.0856 43.7327 25.0856ZM16.2754 21.0535C15.8482 21.0535 15.4386 21.2232 15.1365 21.5252C14.8344 21.8273 14.6647 22.237 14.6647 22.6642C14.6647 23.0913 14.8344 23.501 15.1365 23.8031C15.4386 24.1051 15.8482 24.2748 16.2754 24.2748H43.7327C44.1599 24.2748 44.5696 24.1051 44.8716 23.8031C45.1737 23.501 45.3434 23.0913 45.3434 22.6642C45.3434 22.237 45.1737 21.8273 44.8716 21.5252C44.5696 21.2232 44.1599 21.0535 43.7327 21.0535H16.2754Z" fill="#323C6B"/>
<path d="M47.1349 41.0968H12.8651C12.5434 41.1027 12.2237 41.0444 11.9248 40.9254C11.6258 40.8063 11.3536 40.6289 11.124 40.4034C10.8944 40.178 10.712 39.9091 10.5875 39.6124C10.463 39.3156 10.3989 38.9971 10.3989 38.6753C10.3989 38.3535 10.463 38.035 10.5875 37.7383C10.712 37.4415 10.8944 37.1726 11.124 36.9472C11.3536 36.7217 11.6258 36.5443 11.9248 36.4253C12.2237 36.3062 12.5434 36.2479 12.8651 36.2538H47.1349C47.4566 36.2479 47.7763 36.3062 48.0752 36.4253C48.3741 36.5443 48.6464 36.7217 48.876 36.9472C49.1056 37.1726 49.2879 37.4415 49.4124 37.7383C49.5369 38.035 49.6011 38.3535 49.6011 38.6753C49.6011 38.9971 49.5369 39.3156 49.4124 39.6124C49.2879 39.9091 49.1056 40.178 48.876 40.4034C48.6464 40.6289 48.3741 40.8063 48.0752 40.9254C47.7763 41.0444 47.4566 41.1027 47.1349 41.0968ZM12.8651 37.0638C12.6506 37.059 12.4372 37.0971 12.2376 37.1759C12.038 37.2547 11.8561 37.3725 11.7026 37.5226C11.5492 37.6726 11.4273 37.8518 11.344 38.0496C11.2608 38.2474 11.2179 38.4599 11.2179 38.6745C11.2179 38.8891 11.2608 39.1016 11.344 39.2994C11.4273 39.4972 11.5492 39.6764 11.7026 39.8264C11.8561 39.9765 12.038 40.0943 12.2376 40.1731C12.4372 40.2519 12.6506 40.29 12.8651 40.2852H47.1349C47.3494 40.29 47.5628 40.2519 47.7624 40.1731C47.962 40.0943 48.1439 39.9765 48.2974 39.8264C48.4508 39.6764 48.5727 39.4972 48.656 39.2994C48.7392 39.1016 48.7821 38.8891 48.7821 38.6745C48.7821 38.4599 48.7392 38.2474 48.656 38.0496C48.5727 37.8518 48.4508 37.6726 48.2974 37.5226C48.1439 37.3725 47.962 37.2547 47.7624 37.1759C47.5628 37.0971 47.3494 37.059 47.1349 37.0638H12.8651Z" fill="#323C6B"/>
<path d="M29.4462 23.1893H28.9735C28.8337 23.1893 28.6996 23.1338 28.6008 23.0349C28.502 22.9361 28.4464 22.8021 28.4464 22.6623C28.4464 22.5225 28.502 22.3885 28.6008 22.2896C28.6996 22.1908 28.8337 22.1353 28.9735 22.1353H29.4462C29.5859 22.1353 29.72 22.1908 29.8188 22.2896C29.9177 22.3885 29.9732 22.5225 29.9732 22.6623C29.9732 22.8021 29.9177 22.9361 29.8188 23.0349C29.72 23.1338 29.5859 23.1893 29.4462 23.1893Z" fill="white"/>
<path d="M37.3987 23.1893H31.3849C31.2451 23.1893 31.1111 23.1338 31.0122 23.0349C30.9134 22.9361 30.8579 22.8021 30.8579 22.6623C30.8579 22.5225 30.9134 22.3885 31.0122 22.2896C31.1111 22.1908 31.2451 22.1353 31.3849 22.1353H37.3987C37.5385 22.1353 37.6725 22.1908 37.7714 22.2896C37.8702 22.3885 37.9257 22.5225 37.9257 22.6623C37.9257 22.8021 37.8702 22.9361 37.7714 23.0349C37.6725 23.1338 37.5385 23.1893 37.3987 23.1893Z" fill="white"/>
</g>
<defs>
<filter id="filter0_d" x="-4" y="0" width="68" height="68" filterUnits="userSpaceOnUse" color-interpolation-filters="sRGB">
<feFlood flood-opacity="0" result="BackgroundImageFix"/>
<feColorMatrix in="SourceAlpha" type="matrix" values="0 0 0 0 0 0 0 0 0 0 0 0 0 0 0 0 0 0 127 0"/>
<feOffset dy="4"/>
<feGaussianBlur stdDeviation="2"/>
<feColorMatrix type="matrix" values="0 0 0 0 0 0 0 0 0 0 0 0 0 0 0 0 0 0 0.25 0"/>
<feBlend mode="normal" in2="BackgroundImageFix" result="effect1_dropShadow"/>
<feBlend mode="normal" in="SourceGraphic" in2="effect1_dropShadow" result="shape"/>
</filter>
</defs>
</svg>
