<svg width="68" height="65" viewBox="0 0 68 65" fill="none" xmlns="http://www.w3.org/2000/svg">
<g clip-path="url(#clip0)" filter="url(#filter0_d)">
<path d="M58.6094 33.2705L34 40.5305L9.3906 33.2705C9.3906 33.2705 5.70389 34.4621 5.34998 35.7694C4.98717 37.11 2.82482 49.7574 7.0056 51.5949C10.4744 53.1193 17.3753 55.635 29.0809 56.4263C29.8586 56.4788 38.1395 56.4811 38.9176 56.431C50.117 55.7105 57.5317 53.1164 60.9958 51.5944C65.1765 49.7569 63.0142 37.11 62.6514 35.7689C62.2961 34.4621 58.6094 33.2705 58.6094 33.2705Z" fill="#FFC943"/>
<path d="M34.285 56.9359C31.9112 56.9359 29.4521 56.9218 29.049 56.8942C20.3031 56.3026 12.8232 54.6643 6.81667 52.0239C1.91917 49.8709 4.85964 35.7854 4.89714 35.6471C5.29746 34.1692 8.58949 33.0367 9.24527 32.8248L9.38308 32.7803L34 40.0417L58.6164 32.7803L58.7542 32.8248C59.4104 33.0371 62.7025 34.1696 63.1023 35.6471C63.1398 35.7878 66.0803 49.8714 61.1828 52.0243C57.7543 53.5314 50.3078 56.1686 38.9471 56.8993C38.5651 56.9237 36.4609 56.9359 34.285 56.9359ZM9.39761 33.7614C7.97355 34.2404 5.99402 35.1836 5.8023 35.8918C5.20042 38.1146 3.59917 49.5854 7.19402 51.1656C13.1003 53.762 20.4751 55.3745 29.1123 55.959C29.875 56.0101 38.0973 56.0148 38.8871 55.9637C50.1025 55.2423 57.4337 52.6482 60.8059 51.1661C64.4003 49.5859 62.7995 38.1151 62.1976 35.8923C62.0059 35.184 60.0264 34.2414 58.6023 33.7618L34 41.019L9.39761 33.7614Z" fill="#2F3A5A"/>
<path d="M60.476 33.5156C60.3461 29.6175 57.3574 29.6175 57.3574 29.6175C55.2785 12.8555 43.4542 8.69767 43.4542 8.69767C42.2847 6.87845 36.6977 6.22876 36.6977 6.22876H31.3024C31.3024 6.22876 25.7149 6.87845 24.5458 8.69767C24.5458 8.69767 12.7216 12.8555 10.6427 29.6175C10.6427 29.6175 7.65393 29.6175 7.52408 33.5156C7.52408 33.5156 6.74455 44.4305 11.6819 44.82C11.6819 44.82 18.3494 47.7731 34 47.1638C50.1925 47.4844 56.3181 44.82 56.3181 44.82C61.256 44.4309 60.476 33.5156 60.476 33.5156Z" fill="#FFC943"/>
<path d="M34 47.1624C18.3512 47.7717 11.6804 44.8214 11.6804 44.8214C6.74402 44.4295 7.52262 33.5156 7.52262 33.5156C7.62621 30.5156 9.41402 29.8256 10.2325 29.6719C10.4401 32.8777 11.23 37.058 13.9459 37.3003C13.9459 37.3003 19.9365 40.2534 33.9995 39.6413C48.5523 39.9586 54.0531 37.3003 54.0531 37.3003C56.769 37.058 57.5589 32.8777 57.7665 29.6719C58.5854 29.8275 60.3728 30.5194 60.4764 33.5156C60.4764 33.5156 61.1326 42.6914 57.4351 44.5191C56.4006 44.9314 55.3333 45.2559 54.2443 45.4894C50.7386 46.3256 44.2187 47.3663 34 47.1624Z" fill="#F7B521"/>
<path d="M29.8108 47.715C21.206 47.715 15.8796 46.598 13.3108 45.8635C11.914 45.4641 10.729 45.1196 10.3736 44.9461C6.42208 43.02 7.02864 33.8714 7.0563 33.4828C7.16833 30.113 9.30208 29.363 10.2241 29.1966C12.3054 13.6463 22.8686 8.87112 24.2435 8.31284C25.6418 6.46503 30.6654 5.83128 31.248 5.76378L31.3024 5.7605L36.7516 5.76378C37.3324 5.83128 42.3579 6.4669 43.7561 8.31284C45.1315 8.87065 55.6943 13.6463 57.7755 29.1966C58.6966 29.3635 60.8276 30.1149 60.9438 33.4917C60.979 33.9989 61.5593 43.163 57.5393 44.9864C57.4736 45.016 50.7743 47.9611 33.9902 47.6311C32.5196 47.6896 31.1265 47.7175 29.8108 47.715ZM10.6422 30.0867C10.5415 30.0867 8.10489 30.1557 7.99239 33.5321C7.98489 33.6389 7.39896 42.4533 10.7847 44.1033C11.0951 44.2547 12.6433 44.6972 13.5686 44.9621C16.4749 45.7932 22.9943 47.123 33.9818 46.6964C50.3172 47.0171 57.0888 44.1652 57.1526 44.1352C60.0227 42.8335 60.1872 36.0544 60.0086 33.5522V33.5344C59.8952 30.1285 57.4619 30.0891 57.3588 30.0891H56.9444L56.8938 29.678C54.8782 13.4236 43.4154 9.18331 43.3001 9.14253L43.1491 9.08909L43.0619 8.95409C42.206 7.62284 38.1869 6.8794 36.6719 6.70034H31.3282C29.8141 6.88034 25.7932 7.62425 24.9382 8.95409L24.8515 9.08909L24.7001 9.14253C24.5843 9.18331 13.1219 13.4236 11.1063 29.678L11.0557 30.0891L10.6422 30.0867Z" fill="#2F3A5A"/>
<path d="M43.4542 30.1935C43.3299 30.1935 43.2107 30.1441 43.1228 30.0562C43.0349 29.9683 42.9855 29.849 42.9855 29.7247V8.698C42.9855 8.57368 43.0349 8.45445 43.1228 8.36654C43.2107 8.27863 43.3299 8.22925 43.4542 8.22925C43.5785 8.22925 43.6978 8.27863 43.7857 8.36654C43.8736 8.45445 43.923 8.57368 43.923 8.698V29.7247C43.923 29.849 43.8736 29.9683 43.7857 30.0562C43.6978 30.1441 43.5785 30.1935 43.4542 30.1935Z" fill="#2F3A5A"/>
<path d="M24.6161 30.1935C24.4918 30.1935 24.3726 30.1441 24.2847 30.0562C24.1968 29.9683 24.1474 29.849 24.1474 29.7247V8.698C24.1474 8.57368 24.1968 8.45445 24.2847 8.36654C24.3726 8.27863 24.4918 8.22925 24.6161 8.22925C24.7405 8.22925 24.8597 8.27863 24.9476 8.36654C25.0355 8.45445 25.0849 8.57368 25.0849 8.698V29.7247C25.0849 29.849 25.0355 29.9683 24.9476 30.0562C24.8597 30.1441 24.7405 30.1935 24.6161 30.1935Z" fill="#2F3A5A"/>
<path d="M37.2639 14.6868V6.65622C37.264 6.24603 37.1832 5.83984 37.0263 5.46085C36.8694 5.08186 36.6393 4.7375 36.3493 4.44742C36.0593 4.15735 35.7149 3.92725 35.336 3.77026C34.957 3.61327 34.5508 3.53247 34.1406 3.53247C33.7305 3.53253 33.3244 3.61338 32.9454 3.7704C32.5665 3.92741 32.2223 4.15752 31.9323 4.44759C31.6423 4.73766 31.4123 5.082 31.2554 5.46096C31.0985 5.83992 31.0178 6.24607 31.0178 6.65622V14.6868" fill="#FFC943"/>
<path d="M37.2639 15.1556C37.1396 15.1556 37.0204 15.1062 36.9325 15.0183C36.8445 14.9304 36.7952 14.8112 36.7952 14.6868V6.65622C36.7859 5.95837 36.5022 5.29224 36.0054 4.80203C35.5086 4.31182 34.8388 4.03697 34.1409 4.03697C33.443 4.03697 32.7731 4.31182 32.2763 4.80203C31.7796 5.29224 31.4958 5.95837 31.4866 6.65622V14.6868C31.4866 14.8112 31.4372 14.9304 31.3493 15.0183C31.2614 15.1062 31.1421 15.1556 31.0178 15.1556C30.8935 15.1556 30.7743 15.1062 30.6864 15.0183C30.5985 14.9304 30.5491 14.8112 30.5491 14.6868V6.65622C30.5599 5.71072 30.943 4.80762 31.6155 4.14284C32.2879 3.47806 33.1953 3.10522 34.1409 3.10522C35.0864 3.10522 35.9938 3.47806 36.6663 4.14284C37.3387 4.80762 37.7219 5.71072 37.7327 6.65622V14.6868C37.7327 14.8112 37.6833 14.9304 37.5954 15.0183C37.5075 15.1062 37.3882 15.1556 37.2639 15.1556Z" fill="#2F3A5A"/>
</g>
<defs>
<filter id="filter0_d" x="0" y="0" width="68" height="68" filterUnits="userSpaceOnUse" color-interpolation-filters="sRGB">
<feFlood flood-opacity="0" result="BackgroundImageFix"/>
<feColorMatrix in="SourceAlpha" type="matrix" values="0 0 0 0 0 0 0 0 0 0 0 0 0 0 0 0 0 0 127 0"/>
<feOffset dy="4"/>
<feGaussianBlur stdDeviation="2"/>
<feColorMatrix type="matrix" values="0 0 0 0 0 0 0 0 0 0 0 0 0 0 0 0 0 0 0.25 0"/>
<feBlend mode="normal" in2="BackgroundImageFix" result="effect1_dropShadow"/>
<feBlend mode="normal" in="SourceGraphic" in2="effect1_dropShadow" result="shape"/>
</filter>
<clipPath id="clip0">
<rect width="60" height="60" fill="white" transform="translate(4)"/>
</clipPath>
</defs>
</svg>
