<svg width="68" height="60" viewBox="0 0 68 60" fill="none" xmlns="http://www.w3.org/2000/svg">
<g clip-path="url(#clip0)" filter="url(#filter0_d)">
<path d="M57.0156 10.3181H10.9844C9.07176 10.3181 7.52127 11.8686 7.52127 13.7812V41.7328C7.52127 43.6454 9.07176 45.1959 10.9844 45.1959H57.0156C58.9283 45.1959 60.4788 43.6454 60.4788 41.7328V13.7812C60.4788 11.8686 58.9283 10.3181 57.0156 10.3181Z" fill="#9297AB"/>
<path d="M57.0156 45.6642H10.9844C9.94214 45.6627 8.94298 45.2481 8.20595 44.5111C7.46891 43.7742 7.05413 42.7751 7.05252 41.7328V13.7812C7.05401 12.7389 7.46874 11.7397 8.20578 11.0026C8.94283 10.2656 9.94205 9.85085 10.9844 9.84937H57.0156C58.058 9.85085 59.0572 10.2656 59.7943 11.0026C60.5313 11.7397 60.946 12.7389 60.9475 13.7812V41.7328C60.9459 42.7751 60.5311 43.7742 59.7941 44.5111C59.0571 45.2481 58.0579 45.6627 57.0156 45.6642ZM10.9844 10.7869C10.1907 10.7884 9.42993 11.1043 8.86869 11.6655C8.30746 12.2268 7.99151 12.9875 7.99002 13.7812V41.7328C7.99163 42.5264 8.30764 43.2871 8.86886 43.8482C9.43008 44.4093 10.1908 44.7252 10.9844 44.7267H57.0156C57.8093 44.7252 58.5701 44.4093 59.1313 43.848C59.6926 43.2868 60.0085 42.526 60.01 41.7323V13.7812C60.0085 12.9875 59.6926 12.2268 59.1313 11.6655C58.5701 11.1043 57.8093 10.7884 57.0156 10.7869H10.9844Z" fill="#2F3A5A"/>
<path d="M4.46875 45.196V45.7914C4.46875 46.8232 4.87865 47.8128 5.60829 48.5424C6.33792 49.2721 7.32752 49.682 8.35938 49.682H59.6406C60.6725 49.682 61.6621 49.2721 62.3917 48.5424C63.1213 47.8128 63.5312 46.8232 63.5312 45.7914V45.196H4.46875Z" fill="#9297AB"/>
<g opacity="0.5">
<path opacity="0.5" d="M63.5313 45.1968V45.7921C63.5306 46.8238 63.1205 47.813 62.391 48.5425C61.6615 49.272 60.6723 49.6821 59.6406 49.6827H8.35938C7.68165 49.682 7.01577 49.5049 6.42728 49.1687C5.8388 48.8326 5.34798 48.349 5.00313 47.7655C5.38843 47.8865 5.7899 47.9482 6.19375 47.9483H57.475C58.3082 47.9487 59.1196 47.6816 59.7896 47.1862C60.4596 46.6909 60.9529 45.9935 61.1969 45.1968H63.5313Z" fill="#707583"/>
</g>
<path d="M59.6406 50.1507H8.35938C7.20362 50.1493 6.09558 49.6896 5.27834 48.8724C4.46109 48.0551 4.00136 46.9471 4 45.7913L4 45.1956C4 45.0712 4.04939 44.952 4.13729 44.8641C4.2252 44.7762 4.34443 44.7268 4.46875 44.7268H63.5312C63.6556 44.7268 63.7748 44.7762 63.8627 44.8641C63.9506 44.952 64 45.0712 64 45.1956V45.7913C63.9986 46.9471 63.5389 48.0551 62.7217 48.8724C61.9044 49.6896 60.7964 50.1493 59.6406 50.1507ZM4.9375 45.6643V45.7913C4.93862 46.6985 5.29949 47.5683 5.94098 48.2097C6.58246 48.8512 7.45218 49.2121 8.35938 49.2132H59.6406C60.5478 49.2121 61.4175 48.8512 62.059 48.2097C62.7005 47.5683 63.0614 46.6985 63.0625 45.7913V45.6643H4.9375Z" fill="#2F3A5A"/>
<path d="M11.0969 13.979H56.9036V41.5345H11.0969V13.979Z" fill="#FBBF32"/>
<path d="M56.9031 42.0032H11.0969C10.9726 42.0032 10.8533 41.9538 10.7654 41.8659C10.6775 41.778 10.6281 41.6588 10.6281 41.5345V13.979C10.6281 13.8547 10.6775 13.7355 10.7654 13.6475C10.8533 13.5596 10.9726 13.5103 11.0969 13.5103H56.9031C57.0275 13.5103 57.1467 13.5596 57.2346 13.6475C57.3225 13.7355 57.3719 13.8547 57.3719 13.979V41.5345C57.3719 41.6588 57.3225 41.778 57.2346 41.8659C57.1467 41.9538 57.0275 42.0032 56.9031 42.0032ZM11.5652 41.0657H56.4344V14.4478H11.5656L11.5652 41.0657Z" fill="#2F3A5A"/>
<path d="M29.3772 45.196H38.6223V46.9839H29.3772V45.196Z" fill="#707583"/>
<path d="M38.6223 47.4526H29.3776C29.2533 47.4526 29.1341 47.4032 29.0462 47.3153C28.9583 47.2274 28.9089 47.1082 28.9089 46.9838V45.1956C28.9089 45.0712 28.9583 44.952 29.0462 44.8641C29.1341 44.7762 29.2533 44.7268 29.3776 44.7268H38.6223C38.7466 44.7268 38.8659 44.7762 38.9538 44.8641C39.0417 44.952 39.0911 45.0712 39.0911 45.1956V46.9834C39.0911 47.045 39.079 47.106 39.0555 47.1629C39.032 47.2198 38.9975 47.2716 38.9539 47.3151C38.9104 47.3587 38.8587 47.3933 38.8018 47.4169C38.7449 47.4405 38.6839 47.4526 38.6223 47.4526ZM29.8459 46.5151H38.1536V45.6643H29.8464L29.8459 46.5151Z" fill="#2F3A5A"/>
<path d="M43.9843 29.4287V26.0851L42.0338 25.9112C41.8272 25.0153 41.4731 24.1599 40.9862 23.3799L42.2443 21.8799L39.879 19.517L38.379 20.7723C37.5997 20.2846 36.7441 19.9312 35.8478 19.727L35.6739 17.7737H32.3284L32.1545 19.727C31.2583 19.9317 30.4027 20.285 29.6232 20.7723L28.1232 19.517L25.7603 21.8799L27.0156 23.3799C26.5286 24.1599 26.1746 25.0153 25.9679 25.9112L24.0175 26.0851V29.4282L25.9679 29.6021C26.1741 30.4982 26.5282 31.3537 27.0156 32.1334L25.7603 33.6334L28.1237 36.0001L29.6237 34.742C30.4031 35.23 31.2587 35.5841 32.155 35.7896L32.3289 37.7401H35.672L35.8459 35.7896C36.7423 35.5845 37.598 35.2304 38.3771 34.742L39.8771 36.0001L42.2424 33.6348L40.9843 32.1348C41.4717 31.3551 41.8258 30.4996 42.032 29.6035L43.9843 29.4287ZM33.9999 31.4804C33.2634 31.4807 32.5434 31.2625 31.9309 30.8535C31.3184 30.4445 30.8409 29.863 30.559 29.1826C30.277 28.5022 30.2031 27.7535 30.3467 27.0311C30.4904 26.3087 30.845 25.6452 31.3658 25.1244C31.8866 24.6036 32.5501 24.2489 33.2725 24.1053C33.9949 23.9617 34.7436 24.0355 35.424 24.3175C36.1044 24.5995 36.6859 25.0769 37.0949 25.6895C37.5039 26.302 37.7221 27.022 37.7218 27.7585C37.7216 28.7456 37.3294 29.6921 36.6314 30.39C35.9335 31.0879 34.987 31.4802 33.9999 31.4804Z" fill="#D9E2E9"/>
<path d="M34 21.9292C32.8474 21.9292 31.7207 22.271 30.7623 22.9113C29.804 23.5516 29.057 24.4617 28.6158 25.5266C28.1747 26.5914 28.0592 27.7632 28.284 28.8936C28.5087 30.0241 29.0636 31.0626 29.8785 31.8777C30.6935 32.6928 31.7318 33.248 32.8622 33.473C33.9926 33.698 35.1644 33.5828 36.2293 33.1419C37.2943 32.701 38.2046 31.9543 38.8451 30.996C39.4857 30.0378 39.8277 28.9112 39.828 27.7586C39.828 26.2128 39.214 24.7303 38.1211 23.6371C37.0282 22.5439 35.5458 21.9296 34 21.9292ZM34 31.4805C33.2635 31.4807 32.5435 31.2626 31.931 30.8536C31.3185 30.4445 30.841 29.8631 30.559 29.1827C30.2771 28.5023 30.2032 27.7535 30.3468 27.0311C30.4904 26.3088 30.8451 25.6452 31.3659 25.1244C31.8867 24.6036 32.5502 24.249 33.2726 24.1054C33.995 23.9617 34.7437 24.0356 35.4241 24.3176C36.1045 24.5996 36.686 25.077 37.095 25.6895C37.504 26.302 37.7222 27.0221 37.7219 27.7586C37.7217 28.7456 37.3295 29.6921 36.6315 30.3901C35.9336 31.088 34.9871 31.4802 34 31.4805Z" fill="#C1CDD3"/>
<path d="M35.6716 38.2077H32.3285C32.2111 38.2082 32.0977 38.1645 32.0109 38.0855C31.9241 38.0064 31.8702 37.8976 31.8597 37.7807L31.7154 36.1616C30.9998 35.9677 30.312 35.6828 29.6688 35.3141L28.4228 36.3575C28.333 36.4329 28.2181 36.4718 28.101 36.4665C27.9838 36.4613 27.8729 36.4124 27.79 36.3294L25.4271 33.9641C25.3443 33.8813 25.2956 33.7706 25.2904 33.6536C25.2852 33.5367 25.3239 33.4221 25.3989 33.3322L26.441 32.0863C26.0724 31.4429 25.7875 30.7552 25.593 30.0397L23.9739 29.8954C23.857 29.8849 23.7482 29.8309 23.6691 29.7441C23.5901 29.6573 23.5464 29.544 23.5469 29.4266V26.0849C23.5464 25.9675 23.5901 25.8542 23.6691 25.7674C23.7482 25.6805 23.857 25.6266 23.9739 25.6161L25.593 25.4718C25.7877 24.7564 26.0726 24.0687 26.441 23.4252L25.4013 22.1811C25.3262 22.0913 25.2875 21.9767 25.2927 21.8597C25.2979 21.7428 25.3467 21.6321 25.4294 21.5493L27.7924 19.1863C27.8752 19.1036 27.9859 19.0548 28.1029 19.0496C28.2198 19.0444 28.3344 19.0831 28.4243 19.1582L29.6707 20.1997C30.314 19.8315 31.0017 19.5472 31.7172 19.3536L31.8616 17.7332C31.8719 17.6161 31.9259 17.5072 32.0127 17.4281C32.0995 17.3489 32.2129 17.3052 32.3304 17.3057H35.6739C35.7914 17.3052 35.9048 17.3489 35.9916 17.4281C36.0784 17.5072 36.1324 17.6161 36.1427 17.7332L36.2871 19.3536C37.0027 19.5469 37.6905 19.8313 38.3336 20.1997L39.58 19.1582C39.6699 19.0831 39.7845 19.0444 39.9014 19.0496C40.0184 19.0548 40.1291 19.1036 40.2119 19.1863L42.5772 21.5493C42.6602 21.6321 42.7091 21.743 42.7144 21.8602C42.7196 21.9773 42.6807 22.0922 42.6054 22.1821L41.5572 23.428C41.9256 24.0713 42.2106 24.7588 42.4052 25.4741L44.0243 25.6185C44.1412 25.6289 44.25 25.6829 44.3291 25.7697C44.4081 25.8565 44.4518 25.9698 44.4513 26.0872V29.4304C44.4518 29.5478 44.4081 29.6611 44.3291 29.7479C44.25 29.8347 44.1412 29.8887 44.0243 29.8991L42.4052 30.0435C42.2107 30.7588 41.9257 31.4464 41.5572 32.0896L42.6011 33.336C42.6763 33.4258 42.7151 33.5406 42.7099 33.6576C42.7047 33.7747 42.6559 33.8855 42.573 33.9683L40.2077 36.328C40.1249 36.4109 40.014 36.4597 39.897 36.4649C39.78 36.4701 39.6652 36.4313 39.5754 36.3561L38.3299 35.3127C37.6868 35.6816 36.999 35.9665 36.2833 36.1602L36.1389 37.7811C36.1284 37.8978 36.0746 38.0062 35.9881 38.0852C35.9016 38.1641 35.7887 38.2078 35.6716 38.2077ZM32.7569 37.2702H35.2413L35.3772 35.7468C35.386 35.6483 35.4256 35.5551 35.4905 35.4805C35.5554 35.4059 35.6423 35.3537 35.7386 35.3314C36.5838 35.1383 37.3906 34.8044 38.125 34.3438C38.209 34.2911 38.3074 34.2663 38.4063 34.273C38.5052 34.2798 38.5994 34.3177 38.6754 34.3813L39.8472 35.3657L41.6055 33.6074L40.6211 32.4355C40.5576 32.3597 40.5196 32.2657 40.5127 32.1671C40.5058 32.0684 40.5303 31.9701 40.5827 31.8861C41.0426 31.1513 41.3767 30.3449 41.5713 29.5002C41.5936 29.4039 41.6457 29.317 41.7203 29.2521C41.7949 29.1872 41.8881 29.1475 41.9866 29.1388L43.51 29.0029V26.5185L41.9866 26.3825C41.8882 26.3737 41.7951 26.334 41.7206 26.2691C41.6461 26.2042 41.594 26.1174 41.5718 26.0211C41.377 25.1764 41.0429 24.3701 40.5832 23.6352C40.5308 23.5513 40.5063 23.453 40.5132 23.3543C40.5201 23.2556 40.5581 23.1616 40.6216 23.0858L41.606 21.9139L39.8477 20.1575L38.6758 21.1377C38.6 21.2011 38.5061 21.2389 38.4075 21.2457C38.3089 21.2525 38.2107 21.228 38.1269 21.1757C37.3928 20.7164 36.5867 20.3836 35.7424 20.1913C35.6457 20.1693 35.5585 20.1172 35.4933 20.0424C35.4281 19.9677 35.3883 19.8743 35.3796 19.7755L35.2436 18.2497H32.7593L32.6233 19.7755C32.6145 19.8741 32.5747 19.9674 32.5096 20.0421C32.4445 20.1167 32.3575 20.1687 32.261 20.1908C31.4166 20.3835 30.6104 20.7162 29.876 21.1752C29.7922 21.2275 29.6939 21.252 29.5954 21.2452C29.4968 21.2384 29.4029 21.2006 29.3271 21.1372L28.1552 20.1571L26.3983 21.9135L27.3785 23.0854C27.4419 23.1612 27.4796 23.2551 27.4865 23.3537C27.4933 23.4522 27.4688 23.5504 27.4164 23.6343C26.9562 24.3675 26.6211 25.1723 26.425 26.0155C26.4028 26.1118 26.3507 26.1986 26.2762 26.2635C26.2017 26.3284 26.1086 26.3681 26.0102 26.3769L24.4868 26.5129V28.9972L26.0102 29.1332C26.1087 29.1419 26.2019 29.1816 26.2765 29.2465C26.3511 29.3114 26.4032 29.3982 26.4255 29.4946C26.6201 30.3393 26.9542 31.1457 27.4141 31.8805C27.4664 31.9643 27.4909 32.0625 27.4841 32.1611C27.4773 32.2597 27.4395 32.3536 27.3761 32.4294L26.3955 33.6013L28.1524 35.3596L29.3243 34.3752C29.4002 34.3116 29.4944 34.2737 29.5933 34.2669C29.6922 34.2602 29.7907 34.285 29.8746 34.3377C30.6088 34.798 31.4149 35.132 32.2596 35.3258C32.3558 35.3481 32.4426 35.4001 32.5075 35.4746C32.5724 35.5491 32.6121 35.6423 32.621 35.7407L32.7569 37.2702ZM34 31.9489C33.1708 31.9492 32.3601 31.7036 31.6705 31.2431C30.9809 30.7825 30.4434 30.1278 30.126 29.3618C29.8085 28.5957 29.7254 27.7527 29.8871 26.9394C30.0488 26.1261 30.4481 25.3791 31.0344 24.7927C31.6208 24.2064 32.3678 23.8071 33.1812 23.6454C33.9945 23.4837 34.8375 23.5668 35.6035 23.8843C36.3696 24.2017 37.0242 24.7392 37.4848 25.4288C37.9453 26.1184 38.1909 26.9291 38.1907 27.7583C38.1891 28.8693 37.747 29.9342 36.9615 30.7198C36.1759 31.5053 35.111 31.9473 34 31.9489ZM34 24.5024C33.3564 24.5021 32.727 24.6927 32.1917 25.0501C31.6563 25.4075 31.239 25.9156 30.9924 26.5102C30.7458 27.1047 30.6811 27.7591 30.8064 28.3905C30.9317 29.0218 31.2414 29.6019 31.6963 30.0572C32.1513 30.5126 32.7311 30.8228 33.3623 30.9486C33.9936 31.0745 34.648 31.0103 35.2428 30.7643C35.8376 30.5182 36.3461 30.1013 36.7039 29.5662C37.0617 29.0312 37.2529 28.402 37.2532 27.7583C37.2523 26.8955 36.9094 26.0682 36.2996 25.4578C35.6898 24.8474 34.8629 24.5037 34 24.5019V24.5024Z" fill="#2F3A5A"/>
</g>
<defs>
<filter id="filter0_d" x="0" y="0" width="68" height="68" filterUnits="userSpaceOnUse" color-interpolation-filters="sRGB">
<feFlood flood-opacity="0" result="BackgroundImageFix"/>
<feColorMatrix in="SourceAlpha" type="matrix" values="0 0 0 0 0 0 0 0 0 0 0 0 0 0 0 0 0 0 127 0"/>
<feOffset dy="4"/>
<feGaussianBlur stdDeviation="2"/>
<feColorMatrix type="matrix" values="0 0 0 0 0 0 0 0 0 0 0 0 0 0 0 0 0 0 0.25 0"/>
<feBlend mode="normal" in2="BackgroundImageFix" result="effect1_dropShadow"/>
<feBlend mode="normal" in="SourceGraphic" in2="effect1_dropShadow" result="shape"/>
</filter>
<clipPath id="clip0">
<rect width="60" height="60" fill="white" transform="translate(4)"/>
</clipPath>
</defs>
</svg>
