<svg width="22" height="22" viewBox="0 0 22 22" fill="none" xmlns="http://www.w3.org/2000/svg">
<path d="M18.1772 13.2476C17.7063 12.7573 17.1384 12.4952 16.5365 12.4952C15.9394 12.4952 15.3666 12.7525 14.8763 13.2428L13.3423 14.7719C13.2161 14.7039 13.0899 14.6408 12.9685 14.5777C12.7938 14.4903 12.6287 14.4078 12.488 14.3204C11.0511 13.4078 9.74528 12.2185 8.49287 10.6797C7.88608 9.91272 7.47832 9.2671 7.18221 8.61177C7.58026 8.2477 7.94919 7.86906 8.30841 7.50499C8.44433 7.36907 8.58025 7.22829 8.71617 7.09237C9.73557 6.07297 9.73557 4.7526 8.71617 3.73319L7.39094 2.40797C7.24046 2.25748 7.08512 2.10214 6.93949 1.94681C6.64823 1.64584 6.34241 1.33516 6.02688 1.04391C5.55602 0.577892 4.99292 0.330322 4.40069 0.330322C3.80847 0.330322 3.23566 0.577892 2.75023 1.04391C2.74537 1.04876 2.74537 1.04876 2.74052 1.05361L1.09005 2.71864C0.468701 3.33999 0.114337 4.09727 0.0366679 4.97589C-0.0798355 6.39335 0.337635 7.71372 0.658019 8.57779C1.44442 10.6991 2.61916 12.6651 4.37156 14.7719C6.49775 17.3107 9.05597 19.3155 11.9783 20.7281C13.0948 21.2572 14.585 21.8834 16.2501 21.9902C16.352 21.9951 16.4588 22 16.5559 22C17.6772 22 18.619 21.597 19.3568 20.7961C19.3617 20.7864 19.3714 20.7815 19.3762 20.7718C19.6287 20.466 19.9199 20.1893 20.2257 19.8932C20.4345 19.6942 20.6481 19.4854 20.8568 19.267C21.3374 18.767 21.5898 18.1845 21.5898 17.5874C21.5898 16.9855 21.3325 16.4078 20.8422 15.9224L18.1772 13.2476ZM19.9151 18.3592C19.9102 18.3592 19.9102 18.3641 19.9151 18.3592C19.7257 18.5631 19.5316 18.7476 19.3228 18.9514C19.0073 19.2524 18.6869 19.5679 18.386 19.9223C17.8957 20.4466 17.318 20.6941 16.5607 20.6941C16.4879 20.6941 16.4102 20.6941 16.3374 20.6893C14.8957 20.5971 13.5559 20.034 12.5511 19.5534C9.80354 18.2233 7.39094 16.335 5.38612 13.9418C3.7308 11.9467 2.62401 10.102 1.89101 8.12149C1.43956 6.91276 1.27452 5.97103 1.34733 5.08269C1.39587 4.51474 1.61432 4.04387 2.01723 3.64096L3.67254 1.98564C3.91041 1.76234 4.16283 1.64099 4.4104 1.64099C4.71622 1.64099 4.96379 1.82545 5.11913 1.98079C5.12398 1.98564 5.12884 1.9905 5.13369 1.99535C5.4298 2.27205 5.71135 2.55845 6.00747 2.86427C6.15795 3.01961 6.31329 3.17495 6.46863 3.33514L7.79385 4.66036C8.30841 5.17492 8.30841 5.65064 7.79385 6.1652C7.65308 6.30597 7.51716 6.44675 7.37638 6.58267C6.96862 7.00014 6.58028 7.38848 6.15795 7.76712C6.14824 7.77683 6.13853 7.78168 6.13368 7.79139C5.71621 8.20886 5.79388 8.61662 5.88125 8.89332C5.88611 8.90788 5.89096 8.92245 5.89582 8.93701C6.24047 9.77195 6.7259 10.5583 7.46376 11.4952L7.46861 11.5001C8.8084 13.1505 10.221 14.4369 11.7792 15.4224C11.9783 15.5486 12.1821 15.6505 12.3763 15.7476C12.5511 15.835 12.7161 15.9175 12.8569 16.0049C12.8763 16.0146 12.8957 16.0292 12.9151 16.0389C13.0802 16.1214 13.2355 16.1602 13.3957 16.1602C13.7986 16.1602 14.0511 15.9078 14.1336 15.8253L15.7937 14.1651C15.9588 14.0001 16.2209 13.801 16.5268 13.801C16.8277 13.801 17.0753 13.9903 17.2258 14.1554C17.2306 14.1602 17.2306 14.1602 17.2355 14.1651L19.9102 16.8398C20.4102 17.335 20.4102 17.8447 19.9151 18.3592Z" fill="black"/>
</svg>
