<svg width="68" height="66" viewBox="0 0 68 66" fill="none" xmlns="http://www.w3.org/2000/svg">
<g clip-path="url(#clip0)" filter="url(#filter0_d)">
<path d="M54.8289 33.4792V26.521L50.7695 26.1592C50.3388 24.2962 49.6019 22.5177 48.5889 20.896L51.2069 17.7704L46.2813 12.8528L43.1556 15.4656C41.5353 14.451 39.7562 13.7157 37.8925 13.2901L37.5306 9.2251H30.5749L30.213 13.2901C28.3496 13.7167 26.5706 14.452 24.9499 15.4656L21.8242 12.8528L16.9066 17.7704L19.5194 20.896C18.5062 22.5177 17.7692 24.2962 17.3383 26.1592L13.2789 26.521V33.4792L17.3383 33.841C17.7682 35.7043 18.5053 37.483 19.5194 39.1042L16.9066 42.2298L21.8242 47.1517L24.9499 44.5337C26.5703 45.5494 28.3492 46.2869 30.213 46.7157L30.5749 50.7751H37.533L37.8948 46.7157C39.7588 46.2883 41.5379 45.5512 43.158 44.5351L46.2836 47.1531L51.2055 42.2312L48.5875 39.1056C49.6014 37.4844 50.3384 35.7057 50.7681 33.8424L54.8289 33.4792ZM34.0567 37.749C32.5239 37.7496 31.0253 37.2955 29.7506 36.4443C28.4759 35.593 27.4822 34.3828 26.8954 32.9668C26.3086 31.5507 26.1549 29.9925 26.4538 28.4891C26.7527 26.9856 27.4907 25.6047 28.5746 24.5208C29.6585 23.4369 31.0395 22.6989 32.5429 22.3999C34.0463 22.101 35.6045 22.2547 37.0206 22.8416C38.4366 23.4284 39.6468 24.4221 40.4981 25.6968C41.3493 26.9715 41.8034 28.4701 41.8028 30.0029C41.8023 32.0571 40.9861 34.0271 39.5335 35.4797C38.0809 36.9322 36.111 37.7485 34.0567 37.749Z" fill="#D9E2E9"/>
<path d="M34.0511 17.8711C31.6524 17.8717 29.3078 18.5834 27.3137 19.9164C25.3195 21.2493 23.7654 23.1436 22.8477 25.3598C21.93 27.5759 21.6901 30.0144 22.1582 32.3669C22.6263 34.7194 23.7814 36.8803 25.4775 38.5764C27.1735 40.2725 29.3345 41.4276 31.687 41.8957C34.0395 42.3638 36.478 42.1238 38.6941 41.2062C40.9103 40.2885 42.8046 38.7344 44.1375 36.7402C45.4705 34.7461 46.1822 32.4014 46.1828 30.0028C46.1827 26.7853 44.9045 23.6996 42.6294 21.4245C40.3542 19.1494 37.2686 17.8712 34.0511 17.8711ZM34.0567 37.7494C32.5239 37.7499 31.0254 37.2959 29.7506 36.4447C28.4759 35.5934 27.4823 34.3833 26.8954 32.9673C26.3086 31.5512 26.1548 29.993 26.4537 28.4896C26.7526 26.9862 27.4906 25.6052 28.5744 24.5213C29.6582 23.4374 31.0392 22.6993 32.5426 22.4004C34.0459 22.1014 35.6042 22.255 37.0202 22.8418C38.4363 23.4286 39.6465 24.4221 40.4978 25.6968C41.3491 26.9715 41.8033 28.47 41.8028 30.0028C41.8023 32.0571 40.986 34.027 39.5335 35.4796C38.0809 36.9321 36.1109 37.7484 34.0567 37.7489V37.7494Z" fill="#C1CDD3"/>
<path d="M37.533 51.2436H30.5749C30.4575 51.2441 30.3441 51.2004 30.2573 51.1214C30.1705 51.0423 30.1166 50.9335 30.1061 50.8166L29.7742 47.0923C28.0905 46.6715 26.4784 46.0038 24.9902 45.1109L22.1233 47.5123C22.0334 47.5877 21.9186 47.6265 21.8014 47.6213C21.6843 47.6161 21.5733 47.5672 21.4905 47.4842L16.5752 42.5623C16.4925 42.4795 16.4437 42.3688 16.4385 42.2519C16.4333 42.1349 16.472 42.0203 16.5471 41.9305L18.9438 39.0631C18.0517 37.5744 17.3837 35.9624 16.9614 34.2791L13.2372 33.9472C13.1203 33.9367 13.0115 33.8828 12.9324 33.796C12.8533 33.7092 12.8097 33.5958 12.8102 33.4784V26.5208C12.8097 26.4034 12.8533 26.29 12.9324 26.2032C13.0115 26.1164 13.1203 26.0625 13.2372 26.052L16.9614 25.7201C17.3844 24.0376 18.0523 22.4263 18.9438 20.938L16.5471 18.0706C16.472 17.9808 16.4333 17.8662 16.4385 17.7492C16.4437 17.6323 16.4925 17.5215 16.5752 17.4387L21.4928 12.5211C21.5756 12.4384 21.6864 12.3896 21.8033 12.3844C21.9202 12.3792 22.0349 12.4179 22.1247 12.493L24.9921 14.8897C26.4802 13.9976 28.0925 13.3312 29.7761 12.912L30.108 9.18312C30.1183 9.06608 30.1723 8.95719 30.2591 8.87802C30.3459 8.79885 30.4593 8.75516 30.5767 8.75562H37.533C37.6505 8.75516 37.7639 8.79885 37.8507 8.87802C37.9375 8.95719 37.9914 9.06608 38.0017 9.18312L38.3336 12.9116C40.0175 13.3302 41.6297 13.9967 43.1177 14.8892L45.985 12.4925C46.0748 12.4174 46.1895 12.3787 46.3064 12.3839C46.4234 12.3891 46.5341 12.4379 46.6169 12.5206L51.5388 17.4383C51.6218 17.5211 51.6707 17.6321 51.6759 17.7492C51.6811 17.8664 51.6422 17.9812 51.5669 18.0711L49.1641 20.9384C50.0554 22.4265 50.7231 24.0375 51.146 25.7197L54.8702 26.0516C54.9871 26.062 55.0959 26.116 55.175 26.2028C55.2541 26.2896 55.2977 26.4029 55.2972 26.5203V33.4789C55.2977 33.5963 55.2541 33.7096 55.175 33.7964C55.0959 33.8832 54.9871 33.9372 54.8702 33.9476L51.146 34.2795C50.7234 35.9619 50.0554 37.5729 49.1636 39.0608L51.5655 41.9281C51.6407 42.018 51.6795 42.1327 51.6743 42.2498C51.6691 42.3668 51.6202 42.4776 51.5374 42.5605L46.6155 47.4823C46.5327 47.5652 46.4218 47.614 46.3048 47.6192C46.1878 47.6245 46.073 47.5856 45.9832 47.5105L43.1167 45.1091C41.6286 46.0026 40.0163 46.6704 38.3322 47.0909L38.0003 50.8151C37.9902 50.9321 37.9366 51.041 37.8501 51.1204C37.7636 51.1997 37.6504 51.2437 37.533 51.2436ZM31.0038 50.3061H37.1041L37.4275 46.6737C37.4363 46.5752 37.4759 46.482 37.5408 46.4074C37.6058 46.3328 37.6926 46.2807 37.7889 46.2584C39.6021 45.8429 41.3327 45.1261 42.9086 44.1378C42.9925 44.0851 43.091 44.0603 43.1899 44.067C43.2888 44.0738 43.3829 44.1117 43.4589 44.1753L46.2555 46.5191L50.5717 42.2028L48.228 39.4062C48.1644 39.3304 48.1265 39.2365 48.1196 39.1378C48.1127 39.0391 48.1372 38.9408 48.1896 38.8569C49.177 37.2796 49.8945 35.5486 50.3125 33.7353C50.3348 33.639 50.3869 33.5521 50.4615 33.4872C50.5361 33.4223 50.6293 33.3826 50.7278 33.3739L54.3602 33.0505V26.9497L50.7278 26.6262C50.6294 26.6174 50.5363 26.5777 50.4618 26.5128C50.3873 26.4479 50.3352 26.3611 50.313 26.2648C49.8946 24.4521 49.1777 22.7216 48.1914 21.1442C48.1391 21.0603 48.1146 20.962 48.1215 20.8633C48.1284 20.7646 48.1663 20.6706 48.2299 20.5948L50.5736 17.7983L46.2574 13.4858L43.4589 15.8248C43.3831 15.8882 43.2892 15.926 43.1906 15.9328C43.0921 15.9397 42.9938 15.9151 42.91 15.8628C41.3343 14.8756 39.6037 14.1603 37.7908 13.7469C37.6941 13.7248 37.6069 13.6727 37.5417 13.598C37.4765 13.5233 37.4367 13.4299 37.428 13.3311L37.1046 9.69359H31.0038L30.6803 13.3311C30.6716 13.4298 30.6319 13.5232 30.5668 13.5979C30.5017 13.6726 30.4146 13.7248 30.318 13.7469C28.5053 14.161 26.7749 14.8762 25.1988 15.8628C25.115 15.9151 25.0167 15.9397 24.9182 15.9328C24.8196 15.926 24.7257 15.8882 24.6499 15.8248L21.8533 13.4872L17.5408 17.7997L19.8785 20.5962C19.9418 20.6721 19.9796 20.766 19.9865 20.8645C19.9933 20.9631 19.9688 21.0613 19.9164 21.1452C18.9305 22.7223 18.2137 24.4525 17.7953 26.2648C17.7731 26.3611 17.721 26.4479 17.6465 26.5128C17.572 26.5777 17.4789 26.6174 17.3805 26.6262L13.7482 26.9497V33.05L17.3805 33.3734C17.479 33.3822 17.5722 33.4218 17.6468 33.4867C17.7214 33.5516 17.7736 33.6385 17.7958 33.7348C18.2136 35.5476 18.9306 37.278 19.9174 38.855C19.9697 38.9388 19.9942 39.037 19.9874 39.1356C19.9806 39.2342 19.9428 39.3281 19.8794 39.4039L17.5413 42.2014L21.8538 46.5177L24.6503 44.1739C24.7263 44.1103 24.8205 44.0724 24.9194 44.0656C25.0183 44.0589 25.1167 44.0837 25.2007 44.1364C26.7767 45.1243 28.507 45.8412 30.3199 46.2575C30.4161 46.2797 30.5029 46.3318 30.5678 46.4063C30.6327 46.4808 30.6724 46.5739 30.6813 46.6723L31.0038 50.3061ZM34.0567 38.2175C32.4312 38.218 30.842 37.7365 29.4902 36.8337C28.1384 35.931 27.0847 34.6476 26.4623 33.1459C25.84 31.6442 25.6771 29.9917 25.994 28.3973C26.311 26.803 27.0937 25.3385 28.2432 24.1891C29.3926 23.0396 30.8571 22.2569 32.4514 21.9399C34.0458 21.623 35.6983 21.7859 37.2 22.4083C38.7017 23.0306 39.9851 24.0843 40.8878 25.4361C41.7906 26.7879 42.2722 28.3771 42.2716 30.0026C42.2684 32.1804 41.4018 34.268 39.862 35.8079C38.3221 37.3477 36.2345 38.2143 34.0567 38.2175ZM34.0567 22.7197C32.6169 22.7191 31.2092 23.1456 30.0116 23.945C28.8141 24.7445 27.8806 25.8812 27.329 27.2112C26.7775 28.5413 26.6328 30.005 26.9131 31.4174C27.1935 32.8297 27.8863 34.1272 28.9041 35.1457C29.9219 36.1642 31.2188 36.8581 32.6309 37.1396C34.043 37.421 35.5068 37.2774 36.8373 36.7269C38.1678 36.1764 39.3052 35.2437 40.1056 34.0468C40.906 32.8499 41.3335 31.4425 41.3341 30.0026C41.332 28.0727 40.5648 26.2223 39.2006 24.8571C37.8365 23.4919 35.9867 22.7233 34.0567 22.7197Z" fill="#2F3A5A"/>
<path d="M34.0511 57.6948C27.1384 57.6953 20.4756 55.1098 15.3726 50.4466C10.2696 45.7835 7.09554 39.3801 6.47455 32.4953C6.46452 32.372 6.50362 32.2498 6.58331 32.1552C6.66301 32.0606 6.77685 32.0014 6.90004 31.9904C7.02322 31.9794 7.14577 32.0175 7.24097 32.0964C7.33617 32.1754 7.39632 32.2888 7.4083 32.4119C8.00924 39.0636 11.0764 45.2501 16.007 49.7553C20.9375 54.2605 27.3748 56.7585 34.0537 56.7585C40.7325 56.7585 47.1699 54.2605 52.1004 49.7553C57.031 45.2501 60.0982 39.0636 60.6991 32.4119C60.7111 32.2888 60.7712 32.1754 60.8664 32.0964C60.9616 32.0175 61.0842 31.9794 61.2074 31.9904C61.3305 32.0014 61.4444 32.0606 61.5241 32.1552C61.6038 32.2498 61.6429 32.372 61.6328 32.4953C61.0115 39.3808 57.8366 45.7848 52.7326 50.448C47.6286 55.1112 40.9646 57.6962 34.0511 57.6948Z" fill="#2F3A5A"/>
<path d="M61.166 28.0152C61.0485 28.0157 60.9352 27.9721 60.8484 27.893C60.7616 27.8139 60.7077 27.7052 60.6972 27.5882C60.0963 20.9364 57.0291 14.75 52.0985 10.2448C47.168 5.73961 40.7307 3.24151 34.0518 3.24151C27.373 3.24151 20.9356 5.73961 16.0051 10.2448C11.0745 14.75 8.00736 20.9364 7.40643 27.5882C7.39444 27.7113 7.33429 27.8247 7.23909 27.9036C7.14389 27.9826 7.02135 28.0207 6.89816 28.0097C6.77498 27.9987 6.66113 27.9394 6.58144 27.8449C6.50174 27.7503 6.46265 27.628 6.47268 27.5048C7.09575 20.6207 10.2709 14.2185 15.3741 9.55635C20.4773 4.89417 27.1396 2.30908 34.0518 2.30908C40.964 2.30908 47.6263 4.89417 52.7296 9.55635C57.8328 14.2185 61.0079 20.6207 61.631 27.5048C61.642 27.6286 61.6034 27.7517 61.5237 27.8471C61.444 27.9425 61.3296 28.0023 61.2058 28.0134C61.1936 28.0148 61.1796 28.0152 61.166 28.0152Z" fill="#2F3A5A"/>
<path d="M61.1664 28.5838C61.0424 28.5838 60.9234 28.5345 60.8355 28.4469L57.0954 24.7232C57.0505 24.68 57.0147 24.6284 56.99 24.5712C56.9653 24.5141 56.9523 24.4526 56.9516 24.3904C56.9509 24.3282 56.9627 24.2664 56.9861 24.2088C57.0096 24.1511 57.0443 24.0987 57.0882 24.0546C57.1321 24.0105 57.1843 23.9756 57.2419 23.9519C57.2995 23.9282 57.3611 23.9162 57.4234 23.9166C57.4856 23.917 57.5472 23.9298 57.6044 23.9543C57.6616 23.9787 57.7134 24.0143 57.7568 24.059L61.0483 27.336L63.1174 23.4374C63.1462 23.383 63.1855 23.3348 63.2329 23.2956C63.2804 23.2564 63.3351 23.2269 63.394 23.2089C63.4528 23.1908 63.5146 23.1845 63.5759 23.1903C63.6372 23.1962 63.6967 23.214 63.7511 23.2429C63.8055 23.2717 63.8537 23.311 63.8929 23.3584C63.9321 23.4059 63.9616 23.4606 63.9796 23.5194C63.9977 23.5783 64.004 23.6401 63.9982 23.7014C63.9923 23.7627 63.9745 23.8222 63.9456 23.8766L61.5808 28.3363C61.5465 28.4011 61.4976 28.4569 61.4378 28.4993C61.3781 28.5417 61.3092 28.5695 61.2368 28.5805C61.2134 28.5833 61.1899 28.5844 61.1664 28.5838Z" fill="#2F3A5A"/>
<path d="M4.46877 36.9992C4.3924 36.9992 4.3172 36.9804 4.24986 36.9444C4.19548 36.9155 4.1473 36.8762 4.10809 36.8288C4.06888 36.7813 4.0394 36.7266 4.02134 36.6678C4.00327 36.6089 3.99698 36.5471 4.00281 36.4858C4.00864 36.4245 4.02649 36.365 4.05533 36.3106L6.41971 31.8514C6.45403 31.7867 6.50303 31.7309 6.56278 31.6886C6.62254 31.6462 6.69138 31.6185 6.7638 31.6076C6.83621 31.5966 6.91018 31.6028 6.97978 31.6256C7.04937 31.6484 7.11265 31.6872 7.16455 31.7389L10.9047 35.4626C10.9903 35.5509 11.0378 35.6692 11.037 35.7921C11.0362 35.915 10.9872 36.0327 10.9004 36.1198C10.8137 36.2069 10.6962 36.2564 10.5733 36.2578C10.4504 36.2591 10.3319 36.2121 10.2433 36.1269L6.95314 32.8494L4.88268 36.7498C4.84283 36.8251 4.78325 36.888 4.71033 36.932C4.63741 36.9759 4.5539 36.9991 4.46877 36.9992Z" fill="#2F3A5A"/>
</g>
<defs>
<filter id="filter0_d" x="0" y="0" width="68" height="68" filterUnits="userSpaceOnUse" color-interpolation-filters="sRGB">
<feFlood flood-opacity="0" result="BackgroundImageFix"/>
<feColorMatrix in="SourceAlpha" type="matrix" values="0 0 0 0 0 0 0 0 0 0 0 0 0 0 0 0 0 0 127 0"/>
<feOffset dy="4"/>
<feGaussianBlur stdDeviation="2"/>
<feColorMatrix type="matrix" values="0 0 0 0 0 0 0 0 0 0 0 0 0 0 0 0 0 0 0.25 0"/>
<feBlend mode="normal" in2="BackgroundImageFix" result="effect1_dropShadow"/>
<feBlend mode="normal" in="SourceGraphic" in2="effect1_dropShadow" result="shape"/>
</filter>
<clipPath id="clip0">
<rect width="60" height="60" fill="white" transform="translate(4)"/>
</clipPath>
</defs>
</svg>
